ISO-10303-21;
HEADER;
/* Generated by software containing ST-Developer
 * from STEP Tools, Inc. (www.steptools.com) 
 */

FILE_DESCRIPTION(
/* description */ (''),
/* implementation_level */ '2;1');

FILE_NAME(
/* name */ 'Bottom_Case.step',
/* time_stamp */ '2026-08-26T21:10:47-07:00',
/* author */ (''),
/* organization */ (''),
/* preprocessor_version */ 'ST-DEVELOPER v20.1',
/* originating_system */ 'Autodesk Translation Framework v15.8.0.0',
/* authorisation */ '');

FILE_SCHEMA (('AUTOMOTIVE_DESIGN { 1 0 10303 214 3 1 1 }'));
ENDSEC;

DATA;
#10=MECHANICAL_DESIGN_GEOMETRIC_PRESENTATION_REPRESENTATION('',(#13),#2288);
#11=SHAPE_REPRESENTATION_RELATIONSHIP('SRR','None',#2295,#12);
#12=ADVANCED_BREP_SHAPE_REPRESENTATION('',(#14),#2287);
#13=STYLED_ITEM('',(#2304),#14);
#14=MANIFOLD_SOLID_BREP('Body5',#1392);
#15=FACE_BOUND('',#160,.T.);
#16=FACE_BOUND('',#161,.T.);
#17=FACE_BOUND('',#162,.T.);
#18=FACE_BOUND('',#163,.T.);
#19=FACE_BOUND('',#195,.T.);
#20=FACE_BOUND('',#201,.T.);
#21=FACE_BOUND('',#205,.T.);
#22=FACE_BOUND('',#206,.T.);
#23=FACE_BOUND('',#207,.T.);
#24=FACE_BOUND('',#208,.T.);
#25=FACE_BOUND('',#209,.T.);
#26=FACE_BOUND('',#210,.T.);
#27=FACE_BOUND('',#215,.T.);
#28=FACE_BOUND('',#219,.T.);
#29=FACE_BOUND('',#223,.T.);
#30=FACE_BOUND('',#227,.T.);
#31=FACE_BOUND('',#231,.T.);
#32=FACE_BOUND('',#235,.T.);
#33=PLANE('',#1409);
#34=PLANE('',#1410);
#35=PLANE('',#1414);
#36=PLANE('',#1415);
#37=PLANE('',#1416);
#38=PLANE('',#1425);
#39=PLANE('',#1428);
#40=PLANE('',#1433);
#41=PLANE('',#1436);
#42=PLANE('',#1437);
#43=PLANE('',#1438);
#44=PLANE('',#1439);
#45=PLANE('',#1440);
#46=PLANE('',#1441);
#47=PLANE('',#1442);
#48=PLANE('',#1443);
#49=PLANE('',#1444);
#50=PLANE('',#1445);
#51=PLANE('',#1446);
#52=PLANE('',#1447);
#53=PLANE('',#1448);
#54=PLANE('',#1449);
#55=PLANE('',#1450);
#56=PLANE('',#1451);
#57=PLANE('',#1452);
#58=PLANE('',#1453);
#59=PLANE('',#1454);
#60=PLANE('',#1455);
#61=PLANE('',#1456);
#62=PLANE('',#1457);
#63=PLANE('',#1458);
#64=PLANE('',#1459);
#65=PLANE('',#1461);
#66=PLANE('',#1462);
#67=PLANE('',#1465);
#68=PLANE('',#1466);
#69=PLANE('',#1467);
#70=PLANE('',#1469);
#71=PLANE('',#1470);
#72=PLANE('',#1471);
#73=PLANE('',#1478);
#74=PLANE('',#1483);
#75=PLANE('',#1489);
#76=PLANE('',#1494);
#77=PLANE('',#1500);
#78=PLANE('',#1505);
#79=PLANE('',#1510);
#80=PLANE('',#1511);
#81=PLANE('',#1512);
#82=PLANE('',#1513);
#83=PLANE('',#1514);
#84=FACE_OUTER_BOUND('',#153,.T.);
#85=FACE_OUTER_BOUND('',#154,.T.);
#86=FACE_OUTER_BOUND('',#155,.T.);
#87=FACE_OUTER_BOUND('',#156,.T.);
#88=FACE_OUTER_BOUND('',#157,.T.);
#89=FACE_OUTER_BOUND('',#158,.T.);
#90=FACE_OUTER_BOUND('',#159,.T.);
#91=FACE_OUTER_BOUND('',#164,.T.);
#92=FACE_OUTER_BOUND('',#165,.T.);
#93=FACE_OUTER_BOUND('',#166,.T.);
#94=FACE_OUTER_BOUND('',#167,.T.);
#95=FACE_OUTER_BOUND('',#168,.T.);
#96=FACE_OUTER_BOUND('',#169,.T.);
#97=FACE_OUTER_BOUND('',#170,.T.);
#98=FACE_OUTER_BOUND('',#171,.T.);
#99=FACE_OUTER_BOUND('',#172,.T.);
#100=FACE_OUTER_BOUND('',#173,.T.);
#101=FACE_OUTER_BOUND('',#174,.T.);
#102=FACE_OUTER_BOUND('',#175,.T.);
#103=FACE_OUTER_BOUND('',#176,.T.);
#104=FACE_OUTER_BOUND('',#177,.T.);
#105=FACE_OUTER_BOUND('',#178,.T.);
#106=FACE_OUTER_BOUND('',#179,.T.);
#107=FACE_OUTER_BOUND('',#180,.T.);
#108=FACE_OUTER_BOUND('',#181,.T.);
#109=FACE_OUTER_BOUND('',#182,.T.);
#110=FACE_OUTER_BOUND('',#183,.T.);
#111=FACE_OUTER_BOUND('',#184,.T.);
#112=FACE_OUTER_BOUND('',#185,.T.);
#113=FACE_OUTER_BOUND('',#186,.T.);
#114=FACE_OUTER_BOUND('',#187,.T.);
#115=FACE_OUTER_BOUND('',#188,.T.);
#116=FACE_OUTER_BOUND('',#189,.T.);
#117=FACE_OUTER_BOUND('',#190,.T.);
#118=FACE_OUTER_BOUND('',#191,.T.);
#119=FACE_OUTER_BOUND('',#192,.T.);
#120=FACE_OUTER_BOUND('',#193,.T.);
#121=FACE_OUTER_BOUND('',#194,.T.);
#122=FACE_OUTER_BOUND('',#196,.T.);
#123=FACE_OUTER_BOUND('',#197,.T.);
#124=FACE_OUTER_BOUND('',#198,.T.);
#125=FACE_OUTER_BOUND('',#199,.T.);
#126=FACE_OUTER_BOUND('',#200,.T.);
#127=FACE_OUTER_BOUND('',#202,.T.);
#128=FACE_OUTER_BOUND('',#203,.T.);
#129=FACE_OUTER_BOUND('',#204,.T.);
#130=FACE_OUTER_BOUND('',#211,.T.);
#131=FACE_OUTER_BOUND('',#212,.T.);
#132=FACE_OUTER_BOUND('',#213,.T.);
#133=FACE_OUTER_BOUND('',#214,.T.);
#134=FACE_OUTER_BOUND('',#216,.T.);
#135=FACE_OUTER_BOUND('',#217,.T.);
#136=FACE_OUTER_BOUND('',#218,.T.);
#137=FACE_OUTER_BOUND('',#220,.T.);
#138=FACE_OUTER_BOUND('',#221,.T.);
#139=FACE_OUTER_BOUND('',#222,.T.);
#140=FACE_OUTER_BOUND('',#224,.T.);
#141=FACE_OUTER_BOUND('',#225,.T.);
#142=FACE_OUTER_BOUND('',#226,.T.);
#143=FACE_OUTER_BOUND('',#228,.T.);
#144=FACE_OUTER_BOUND('',#229,.T.);
#145=FACE_OUTER_BOUND('',#230,.T.);
#146=FACE_OUTER_BOUND('',#232,.T.);
#147=FACE_OUTER_BOUND('',#233,.T.);
#148=FACE_OUTER_BOUND('',#234,.T.);
#149=FACE_OUTER_BOUND('',#236,.T.);
#150=FACE_OUTER_BOUND('',#237,.T.);
#151=FACE_OUTER_BOUND('',#238,.T.);
#152=FACE_OUTER_BOUND('',#239,.T.);
#153=EDGE_LOOP('',(#915,#916,#917,#918));
#154=EDGE_LOOP('',(#919,#920,#921,#922));
#155=EDGE_LOOP('',(#923,#924,#925,#926,#927,#928));
#156=EDGE_LOOP('',(#929,#930,#931,#932));
#157=EDGE_LOOP('',(#933,#934,#935,#936,#937,#938));
#158=EDGE_LOOP('',(#939,#940,#941,#942,#943,#944,#945,#946,#947,#948));
#159=EDGE_LOOP('',(#949,#950,#951,#952,#953,#954,#955,#956,#957,#958,#959,
#960,#961,#962,#963,#964,#965,#966,#967,#968,#969,#970,#971,#972,#973,#974,
#975,#976,#977,#978,#979,#980,#981,#982,#983,#984,#985,#986,#987,#988,#989,
#990));
#160=EDGE_LOOP('',(#991));
#161=EDGE_LOOP('',(#992));
#162=EDGE_LOOP('',(#993));
#163=EDGE_LOOP('',(#994));
#164=EDGE_LOOP('',(#995,#996,#997,#998));
#165=EDGE_LOOP('',(#999,#1000,#1001,#1002));
#166=EDGE_LOOP('',(#1003,#1004,#1005,#1006));
#167=EDGE_LOOP('',(#1007,#1008,#1009,#1010));
#168=EDGE_LOOP('',(#1011,#1012,#1013,#1014));
#169=EDGE_LOOP('',(#1015,#1016,#1017,#1018));
#170=EDGE_LOOP('',(#1019,#1020,#1021,#1022));
#171=EDGE_LOOP('',(#1023,#1024,#1025,#1026));
#172=EDGE_LOOP('',(#1027,#1028,#1029,#1030));
#173=EDGE_LOOP('',(#1031,#1032,#1033,#1034));
#174=EDGE_LOOP('',(#1035,#1036,#1037,#1038));
#175=EDGE_LOOP('',(#1039,#1040,#1041,#1042,#1043,#1044,#1045,#1046,#1047,
#1048));
#176=EDGE_LOOP('',(#1049,#1050,#1051,#1052));
#177=EDGE_LOOP('',(#1053,#1054,#1055,#1056));
#178=EDGE_LOOP('',(#1057,#1058,#1059,#1060));
#179=EDGE_LOOP('',(#1061,#1062,#1063,#1064));
#180=EDGE_LOOP('',(#1065,#1066,#1067,#1068));
#181=EDGE_LOOP('',(#1069,#1070,#1071,#1072));
#182=EDGE_LOOP('',(#1073,#1074,#1075,#1076));
#183=EDGE_LOOP('',(#1077,#1078,#1079,#1080));
#184=EDGE_LOOP('',(#1081,#1082,#1083,#1084));
#185=EDGE_LOOP('',(#1085,#1086,#1087,#1088));
#186=EDGE_LOOP('',(#1089,#1090,#1091,#1092,#1093,#1094,#1095,#1096,#1097,
#1098,#1099,#1100));
#187=EDGE_LOOP('',(#1101,#1102,#1103,#1104));
#188=EDGE_LOOP('',(#1105,#1106,#1107,#1108));
#189=EDGE_LOOP('',(#1109,#1110,#1111,#1112));
#190=EDGE_LOOP('',(#1113,#1114,#1115,#1116));
#191=EDGE_LOOP('',(#1117,#1118,#1119,#1120));
#192=EDGE_LOOP('',(#1121,#1122,#1123,#1124));
#193=EDGE_LOOP('',(#1125,#1126,#1127,#1128));
#194=EDGE_LOOP('',(#1129,#1130,#1131,#1132));
#195=EDGE_LOOP('',(#1133));
#196=EDGE_LOOP('',(#1134,#1135,#1136,#1137));
#197=EDGE_LOOP('',(#1138,#1139,#1140,#1141,#1142,#1143,#1144,#1145));
#198=EDGE_LOOP('',(#1146,#1147,#1148,#1149));
#199=EDGE_LOOP('',(#1150,#1151,#1152,#1153));
#200=EDGE_LOOP('',(#1154,#1155,#1156,#1157));
#201=EDGE_LOOP('',(#1158));
#202=EDGE_LOOP('',(#1159,#1160,#1161,#1162));
#203=EDGE_LOOP('',(#1163,#1164,#1165,#1166));
#204=EDGE_LOOP('',(#1167,#1168,#1169,#1170,#1171,#1172,#1173,#1174));
#205=EDGE_LOOP('',(#1175));
#206=EDGE_LOOP('',(#1176));
#207=EDGE_LOOP('',(#1177));
#208=EDGE_LOOP('',(#1178));
#209=EDGE_LOOP('',(#1179));
#210=EDGE_LOOP('',(#1180));
#211=EDGE_LOOP('',(#1181,#1182,#1183,#1184,#1185,#1186,#1187,#1188,#1189,
#1190,#1191,#1192,#1193,#1194,#1195,#1196));
#212=EDGE_LOOP('',(#1197,#1198,#1199,#1200));
#213=EDGE_LOOP('',(#1201,#1202,#1203,#1204));
#214=EDGE_LOOP('',(#1205));
#215=EDGE_LOOP('',(#1206));
#216=EDGE_LOOP('',(#1207,#1208,#1209,#1210));
#217=EDGE_LOOP('',(#1211,#1212,#1213,#1214,#1215,#1216,#1217,#1218));
#218=EDGE_LOOP('',(#1219,#1220,#1221));
#219=EDGE_LOOP('',(#1222));
#220=EDGE_LOOP('',(#1223,#1224,#1225,#1226));
#221=EDGE_LOOP('',(#1227,#1228,#1229,#1230));
#222=EDGE_LOOP('',(#1231));
#223=EDGE_LOOP('',(#1232));
#224=EDGE_LOOP('',(#1233,#1234,#1235,#1236));
#225=EDGE_LOOP('',(#1237,#1238,#1239,#1240,#1241,#1242,#1243,#1244));
#226=EDGE_LOOP('',(#1245,#1246,#1247));
#227=EDGE_LOOP('',(#1248));
#228=EDGE_LOOP('',(#1249,#1250,#1251,#1252));
#229=EDGE_LOOP('',(#1253,#1254,#1255,#1256));
#230=EDGE_LOOP('',(#1257));
#231=EDGE_LOOP('',(#1258));
#232=EDGE_LOOP('',(#1259,#1260,#1261,#1262));
#233=EDGE_LOOP('',(#1263,#1264,#1265,#1266));
#234=EDGE_LOOP('',(#1267));
#235=EDGE_LOOP('',(#1268));
#236=EDGE_LOOP('',(#1269,#1270,#1271,#1272));
#237=EDGE_LOOP('',(#1273,#1274,#1275,#1276));
#238=EDGE_LOOP('',(#1277,#1278,#1279,#1280,#1281,#1282,#1283,#1284,#1285,
#1286,#1287,#1288,#1289,#1290,#1291,#1292,#1293,#1294,#1295,#1296,#1297,
#1298,#1299,#1300));
#239=EDGE_LOOP('',(#1301,#1302,#1303,#1304));
#240=LINE('',#1896,#395);
#241=LINE('',#1899,#396);
#242=LINE('',#1902,#397);
#243=LINE('',#1904,#398);
#244=LINE('',#1905,#399);
#245=LINE('',#1909,#400);
#246=LINE('',#1911,#401);
#247=LINE('',#1913,#402);
#248=LINE('',#1915,#403);
#249=LINE('',#1917,#404);
#250=LINE('',#1918,#405);
#251=LINE('',#1924,#406);
#252=LINE('',#1926,#407);
#253=LINE('',#1928,#408);
#254=LINE('',#1930,#409);
#255=LINE('',#1931,#410);
#256=LINE('',#1934,#411);
#257=LINE('',#1936,#412);
#258=LINE('',#1938,#413);
#259=LINE('',#1940,#414);
#260=LINE('',#1941,#415);
#261=LINE('',#1946,#416);
#262=LINE('',#1950,#417);
#263=LINE('',#1954,#418);
#264=LINE('',#1957,#419);
#265=LINE('',#1959,#420);
#266=LINE('',#1961,#421);
#267=LINE('',#1963,#422);
#268=LINE('',#1965,#423);
#269=LINE('',#1967,#424);
#270=LINE('',#1969,#425);
#271=LINE('',#1971,#426);
#272=LINE('',#1973,#427);
#273=LINE('',#1975,#428);
#274=LINE('',#1977,#429);
#275=LINE('',#1979,#430);
#276=LINE('',#1981,#431);
#277=LINE('',#1983,#432);
#278=LINE('',#1985,#433);
#279=LINE('',#1987,#434);
#280=LINE('',#1989,#435);
#281=LINE('',#1991,#436);
#282=LINE('',#1993,#437);
#283=LINE('',#1995,#438);
#284=LINE('',#1997,#439);
#285=LINE('',#1999,#440);
#286=LINE('',#2001,#441);
#287=LINE('',#2003,#442);
#288=LINE('',#2005,#443);
#289=LINE('',#2007,#444);
#290=LINE('',#2009,#445);
#291=LINE('',#2011,#446);
#292=LINE('',#2013,#447);
#293=LINE('',#2015,#448);
#294=LINE('',#2016,#449);
#295=LINE('',#2027,#450);
#296=LINE('',#2028,#451);
#297=LINE('',#2033,#452);
#298=LINE('',#2034,#453);
#299=LINE('',#2037,#454);
#300=LINE('',#2038,#455);
#301=LINE('',#2044,#456);
#302=LINE('',#2047,#457);
#303=LINE('',#2048,#458);
#304=LINE('',#2052,#459);
#305=LINE('',#2054,#460);
#306=LINE('',#2057,#461);
#307=LINE('',#2059,#462);
#308=LINE('',#2060,#463);
#309=LINE('',#2063,#464);
#310=LINE('',#2065,#465);
#311=LINE('',#2066,#466);
#312=LINE('',#2069,#467);
#313=LINE('',#2070,#468);
#314=LINE('',#2073,#469);
#315=LINE('',#2075,#470);
#316=LINE('',#2077,#471);
#317=LINE('',#2079,#472);
#318=LINE('',#2081,#473);
#319=LINE('',#2082,#474);
#320=LINE('',#2084,#475);
#321=LINE('',#2085,#476);
#322=LINE('',#2088,#477);
#323=LINE('',#2089,#478);
#324=LINE('',#2092,#479);
#325=LINE('',#2093,#480);
#326=LINE('',#2095,#481);
#327=LINE('',#2098,#482);
#328=LINE('',#2099,#483);
#329=LINE('',#2102,#484);
#330=LINE('',#2103,#485);
#331=LINE('',#2106,#486);
#332=LINE('',#2108,#487);
#333=LINE('',#2109,#488);
#334=LINE('',#2112,#489);
#335=LINE('',#2113,#490);
#336=LINE('',#2116,#491);
#337=LINE('',#2117,#492);
#338=LINE('',#2120,#493);
#339=LINE('',#2122,#494);
#340=LINE('',#2123,#495);
#341=LINE('',#2126,#496);
#342=LINE('',#2127,#497);
#343=LINE('',#2130,#498);
#344=LINE('',#2132,#499);
#345=LINE('',#2133,#500);
#346=LINE('',#2135,#501);
#347=LINE('',#2137,#502);
#348=LINE('',#2139,#503);
#349=LINE('',#2141,#504);
#350=LINE('',#2143,#505);
#351=LINE('',#2144,#506);
#352=LINE('',#2147,#507);
#353=LINE('',#2148,#508);
#354=LINE('',#2151,#509);
#355=LINE('',#2152,#510);
#356=LINE('',#2154,#511);
#357=LINE('',#2157,#512);
#358=LINE('',#2158,#513);
#359=LINE('',#2161,#514);
#360=LINE('',#2162,#515);
#361=LINE('',#2165,#516);
#362=LINE('',#2167,#517);
#363=LINE('',#2168,#518);
#364=LINE('',#2170,#519);
#365=LINE('',#2172,#520);
#366=LINE('',#2176,#521);
#367=LINE('',#2181,#522);
#368=LINE('',#2183,#523);
#369=LINE('',#2186,#524);
#370=LINE('',#2187,#525);
#371=LINE('',#2189,#526);
#372=LINE('',#2192,#527);
#373=LINE('',#2196,#528);
#374=LINE('',#2213,#529);
#375=LINE('',#2215,#530);
#376=LINE('',#2216,#531);
#377=LINE('',#2220,#532);
#378=LINE('',#2223,#533);
#379=LINE('',#2229,#534);
#380=LINE('',#2232,#535);
#381=LINE('',#2239,#536);
#382=LINE('',#2242,#537);
#383=LINE('',#2248,#538);
#384=LINE('',#2251,#539);
#385=LINE('',#2254,#540);
#386=LINE('',#2256,#541);
#387=LINE('',#2259,#542);
#388=LINE('',#2263,#543);
#389=LINE('',#2266,#544);
#390=LINE('',#2272,#545);
#391=LINE('',#2275,#546);
#392=LINE('',#2279,#547);
#393=LINE('',#2281,#548);
#394=LINE('',#2282,#549);
#395=VECTOR('',#1521,10.);
#396=VECTOR('',#1524,10.);
#397=VECTOR('',#1527,10.);
#398=VECTOR('',#1528,10.);
#399=VECTOR('',#1529,10.);
#400=VECTOR('',#1532,10.);
#401=VECTOR('',#1533,10.);
#402=VECTOR('',#1534,10.);
#403=VECTOR('',#1535,10.);
#404=VECTOR('',#1536,10.);
#405=VECTOR('',#1537,10.);
#406=VECTOR('',#1546,10.);
#407=VECTOR('',#1547,10.);
#408=VECTOR('',#1548,10.);
#409=VECTOR('',#1549,10.);
#410=VECTOR('',#1550,10.);
#411=VECTOR('',#1553,10.);
#412=VECTOR('',#1554,10.);
#413=VECTOR('',#1555,10.);
#414=VECTOR('',#1556,10.);
#415=VECTOR('',#1557,10.);
#416=VECTOR('',#1562,10.);
#417=VECTOR('',#1565,10.);
#418=VECTOR('',#1568,10.);
#419=VECTOR('',#1571,10.);
#420=VECTOR('',#1572,10.);
#421=VECTOR('',#1573,10.);
#422=VECTOR('',#1574,10.);
#423=VECTOR('',#1575,10.);
#424=VECTOR('',#1576,10.);
#425=VECTOR('',#1577,10.);
#426=VECTOR('',#1578,10.);
#427=VECTOR('',#1579,10.);
#428=VECTOR('',#1580,10.);
#429=VECTOR('',#1581,10.);
#430=VECTOR('',#1582,10.);
#431=VECTOR('',#1583,10.);
#432=VECTOR('',#1584,10.);
#433=VECTOR('',#1585,10.);
#434=VECTOR('',#1586,10.);
#435=VECTOR('',#1587,10.);
#436=VECTOR('',#1588,10.);
#437=VECTOR('',#1589,10.);
#438=VECTOR('',#1590,10.);
#439=VECTOR('',#1591,10.);
#440=VECTOR('',#1592,10.);
#441=VECTOR('',#1593,10.);
#442=VECTOR('',#1594,10.);
#443=VECTOR('',#1595,10.);
#444=VECTOR('',#1596,10.);
#445=VECTOR('',#1597,10.);
#446=VECTOR('',#1598,10.);
#447=VECTOR('',#1599,10.);
#448=VECTOR('',#1600,10.);
#449=VECTOR('',#1601,10.);
#450=VECTOR('',#1612,10.);
#451=VECTOR('',#1613,10.);
#452=VECTOR('',#1618,10.);
#453=VECTOR('',#1619,10.);
#454=VECTOR('',#1622,10.);
#455=VECTOR('',#1623,10.);
#456=VECTOR('',#1632,10.);
#457=VECTOR('',#1635,10.);
#458=VECTOR('',#1636,10.);
#459=VECTOR('',#1641,10.);
#460=VECTOR('',#1644,10.);
#461=VECTOR('',#1647,10.);
#462=VECTOR('',#1648,10.);
#463=VECTOR('',#1649,10.);
#464=VECTOR('',#1652,10.);
#465=VECTOR('',#1653,10.);
#466=VECTOR('',#1654,10.);
#467=VECTOR('',#1657,10.);
#468=VECTOR('',#1658,10.);
#469=VECTOR('',#1661,10.);
#470=VECTOR('',#1662,10.);
#471=VECTOR('',#1663,10.);
#472=VECTOR('',#1664,10.);
#473=VECTOR('',#1665,10.);
#474=VECTOR('',#1666,10.);
#475=VECTOR('',#1667,10.);
#476=VECTOR('',#1668,10.);
#477=VECTOR('',#1671,10.);
#478=VECTOR('',#1672,10.);
#479=VECTOR('',#1675,10.);
#480=VECTOR('',#1676,10.);
#481=VECTOR('',#1679,10.);
#482=VECTOR('',#1682,10.);
#483=VECTOR('',#1683,10.);
#484=VECTOR('',#1686,10.);
#485=VECTOR('',#1687,10.);
#486=VECTOR('',#1690,10.);
#487=VECTOR('',#1691,10.);
#488=VECTOR('',#1692,10.);
#489=VECTOR('',#1695,10.);
#490=VECTOR('',#1696,10.);
#491=VECTOR('',#1699,10.);
#492=VECTOR('',#1700,10.);
#493=VECTOR('',#1703,10.);
#494=VECTOR('',#1704,10.);
#495=VECTOR('',#1705,10.);
#496=VECTOR('',#1708,10.);
#497=VECTOR('',#1709,10.);
#498=VECTOR('',#1712,10.);
#499=VECTOR('',#1713,10.);
#500=VECTOR('',#1714,10.);
#501=VECTOR('',#1715,10.);
#502=VECTOR('',#1716,10.);
#503=VECTOR('',#1717,10.);
#504=VECTOR('',#1718,10.);
#505=VECTOR('',#1719,10.);
#506=VECTOR('',#1720,10.);
#507=VECTOR('',#1723,10.);
#508=VECTOR('',#1724,10.);
#509=VECTOR('',#1727,10.);
#510=VECTOR('',#1728,10.);
#511=VECTOR('',#1731,10.);
#512=VECTOR('',#1734,10.);
#513=VECTOR('',#1735,10.);
#514=VECTOR('',#1738,10.);
#515=VECTOR('',#1739,10.);
#516=VECTOR('',#1742,10.);
#517=VECTOR('',#1743,10.);
#518=VECTOR('',#1744,10.);
#519=VECTOR('',#1747,10.);
#520=VECTOR('',#1750,10.);
#521=VECTOR('',#1755,10.);
#522=VECTOR('',#1760,10.);
#523=VECTOR('',#1761,10.);
#524=VECTOR('',#1764,10.);
#525=VECTOR('',#1765,10.);
#526=VECTOR('',#1768,10.);
#527=VECTOR('',#1773,10.);
#528=VECTOR('',#1778,10.);
#529=VECTOR('',#1797,10.);
#530=VECTOR('',#1798,10.);
#531=VECTOR('',#1799,10.);
#532=VECTOR('',#1804,1.9);
#533=VECTOR('',#1807,2.3);
#534=VECTOR('',#1816,1.9);
#535=VECTOR('',#1819,2.3);
#536=VECTOR('',#1830,1.9);
#537=VECTOR('',#1833,2.3);
#538=VECTOR('',#1842,1.9);
#539=VECTOR('',#1845,2.3);
#540=VECTOR('',#1848,10.);
#541=VECTOR('',#1849,10.);
#542=VECTOR('',#1854,10.);
#543=VECTOR('',#1859,1.9);
#544=VECTOR('',#1862,2.3);
#545=VECTOR('',#1871,1.9);
#546=VECTOR('',#1874,2.3);
#547=VECTOR('',#1881,10.);
#548=VECTOR('',#1884,10.);
#549=VECTOR('',#1885,10.);
#550=CIRCLE('',#1407,0.499999999999996);
#551=CIRCLE('',#1408,0.499999999999996);
#552=CIRCLE('',#1412,0.499999999999972);
#553=CIRCLE('',#1413,0.499999999999972);
#554=CIRCLE('',#1417,3.00000000000003);
#555=CIRCLE('',#1418,3.00000000000001);
#556=CIRCLE('',#1419,3.00000000000004);
#557=CIRCLE('',#1420,2.99999999999997);
#558=CIRCLE('',#1421,1.9);
#559=CIRCLE('',#1422,1.9);
#560=CIRCLE('',#1423,1.9);
#561=CIRCLE('',#1424,1.9);
#562=CIRCLE('',#1427,3.00000000000001);
#563=CIRCLE('',#1430,3.00000000000003);
#564=CIRCLE('',#1432,2.99999999999997);
#565=CIRCLE('',#1435,3.00000000000004);
#566=CIRCLE('',#1460,1.9);
#567=CIRCLE('',#1463,2.3);
#568=CIRCLE('',#1464,2.3);
#569=CIRCLE('',#1468,1.9);
#570=CIRCLE('',#1472,2.3);
#571=CIRCLE('',#1473,2.3);
#572=CIRCLE('',#1474,2.3);
#573=CIRCLE('',#1475,2.3);
#574=CIRCLE('',#1476,2.3);
#575=CIRCLE('',#1477,2.3);
#576=CIRCLE('',#1480,1.9);
#577=CIRCLE('',#1482,2.3);
#578=CIRCLE('',#1485,1.9);
#579=CIRCLE('',#1487,2.3);
#580=CIRCLE('',#1488,2.3);
#581=CIRCLE('',#1491,1.9);
#582=CIRCLE('',#1493,2.3);
#583=CIRCLE('',#1496,1.9);
#584=CIRCLE('',#1498,2.3);
#585=CIRCLE('',#1499,2.3);
#586=CIRCLE('',#1502,1.9);
#587=CIRCLE('',#1504,2.3);
#588=CIRCLE('',#1507,1.9);
#589=CIRCLE('',#1509,2.3);
#590=VERTEX_POINT('',#1892);
#591=VERTEX_POINT('',#1893);
#592=VERTEX_POINT('',#1895);
#593=VERTEX_POINT('',#1897);
#594=VERTEX_POINT('',#1901);
#595=VERTEX_POINT('',#1903);
#596=VERTEX_POINT('',#1907);
#597=VERTEX_POINT('',#1908);
#598=VERTEX_POINT('',#1910);
#599=VERTEX_POINT('',#1912);
#600=VERTEX_POINT('',#1914);
#601=VERTEX_POINT('',#1916);
#602=VERTEX_POINT('',#1923);
#603=VERTEX_POINT('',#1925);
#604=VERTEX_POINT('',#1927);
#605=VERTEX_POINT('',#1929);
#606=VERTEX_POINT('',#1933);
#607=VERTEX_POINT('',#1935);
#608=VERTEX_POINT('',#1937);
#609=VERTEX_POINT('',#1939);
#610=VERTEX_POINT('',#1943);
#611=VERTEX_POINT('',#1945);
#612=VERTEX_POINT('',#1947);
#613=VERTEX_POINT('',#1949);
#614=VERTEX_POINT('',#1951);
#615=VERTEX_POINT('',#1953);
#616=VERTEX_POINT('',#1956);
#617=VERTEX_POINT('',#1958);
#618=VERTEX_POINT('',#1960);
#619=VERTEX_POINT('',#1962);
#620=VERTEX_POINT('',#1964);
#621=VERTEX_POINT('',#1966);
#622=VERTEX_POINT('',#1968);
#623=VERTEX_POINT('',#1970);
#624=VERTEX_POINT('',#1972);
#625=VERTEX_POINT('',#1974);
#626=VERTEX_POINT('',#1976);
#627=VERTEX_POINT('',#1978);
#628=VERTEX_POINT('',#1980);
#629=VERTEX_POINT('',#1982);
#630=VERTEX_POINT('',#1984);
#631=VERTEX_POINT('',#1986);
#632=VERTEX_POINT('',#1988);
#633=VERTEX_POINT('',#1990);
#634=VERTEX_POINT('',#1992);
#635=VERTEX_POINT('',#1994);
#636=VERTEX_POINT('',#1996);
#637=VERTEX_POINT('',#1998);
#638=VERTEX_POINT('',#2000);
#639=VERTEX_POINT('',#2002);
#640=VERTEX_POINT('',#2004);
#641=VERTEX_POINT('',#2006);
#642=VERTEX_POINT('',#2008);
#643=VERTEX_POINT('',#2010);
#644=VERTEX_POINT('',#2012);
#645=VERTEX_POINT('',#2014);
#646=VERTEX_POINT('',#2017);
#647=VERTEX_POINT('',#2019);
#648=VERTEX_POINT('',#2021);
#649=VERTEX_POINT('',#2023);
#650=VERTEX_POINT('',#2026);
#651=VERTEX_POINT('',#2030);
#652=VERTEX_POINT('',#2031);
#653=VERTEX_POINT('',#2036);
#654=VERTEX_POINT('',#2042);
#655=VERTEX_POINT('',#2046);
#656=VERTEX_POINT('',#2050);
#657=VERTEX_POINT('',#2056);
#658=VERTEX_POINT('',#2058);
#659=VERTEX_POINT('',#2062);
#660=VERTEX_POINT('',#2064);
#661=VERTEX_POINT('',#2068);
#662=VERTEX_POINT('',#2072);
#663=VERTEX_POINT('',#2074);
#664=VERTEX_POINT('',#2076);
#665=VERTEX_POINT('',#2078);
#666=VERTEX_POINT('',#2080);
#667=VERTEX_POINT('',#2083);
#668=VERTEX_POINT('',#2087);
#669=VERTEX_POINT('',#2091);
#670=VERTEX_POINT('',#2097);
#671=VERTEX_POINT('',#2101);
#672=VERTEX_POINT('',#2105);
#673=VERTEX_POINT('',#2107);
#674=VERTEX_POINT('',#2111);
#675=VERTEX_POINT('',#2115);
#676=VERTEX_POINT('',#2119);
#677=VERTEX_POINT('',#2121);
#678=VERTEX_POINT('',#2125);
#679=VERTEX_POINT('',#2129);
#680=VERTEX_POINT('',#2131);
#681=VERTEX_POINT('',#2134);
#682=VERTEX_POINT('',#2136);
#683=VERTEX_POINT('',#2138);
#684=VERTEX_POINT('',#2140);
#685=VERTEX_POINT('',#2142);
#686=VERTEX_POINT('',#2146);
#687=VERTEX_POINT('',#2150);
#688=VERTEX_POINT('',#2156);
#689=VERTEX_POINT('',#2160);
#690=VERTEX_POINT('',#2164);
#691=VERTEX_POINT('',#2166);
#692=VERTEX_POINT('',#2173);
#693=VERTEX_POINT('',#2178);
#694=VERTEX_POINT('',#2179);
#695=VERTEX_POINT('',#2182);
#696=VERTEX_POINT('',#2184);
#697=VERTEX_POINT('',#2193);
#698=VERTEX_POINT('',#2199);
#699=VERTEX_POINT('',#2201);
#700=VERTEX_POINT('',#2203);
#701=VERTEX_POINT('',#2205);
#702=VERTEX_POINT('',#2207);
#703=VERTEX_POINT('',#2209);
#704=VERTEX_POINT('',#2212);
#705=VERTEX_POINT('',#2214);
#706=VERTEX_POINT('',#2218);
#707=VERTEX_POINT('',#2222);
#708=VERTEX_POINT('',#2227);
#709=VERTEX_POINT('',#2231);
#710=VERTEX_POINT('',#2237);
#711=VERTEX_POINT('',#2241);
#712=VERTEX_POINT('',#2246);
#713=VERTEX_POINT('',#2250);
#714=VERTEX_POINT('',#2252);
#715=VERTEX_POINT('',#2255);
#716=VERTEX_POINT('',#2261);
#717=VERTEX_POINT('',#2265);
#718=VERTEX_POINT('',#2270);
#719=VERTEX_POINT('',#2274);
#720=EDGE_CURVE('',#590,#591,#550,.T.);
#721=EDGE_CURVE('',#590,#592,#240,.T.);
#722=EDGE_CURVE('',#593,#592,#551,.T.);
#723=EDGE_CURVE('',#591,#593,#241,.T.);
#724=EDGE_CURVE('',#591,#594,#242,.T.);
#725=EDGE_CURVE('',#595,#593,#243,.T.);
#726=EDGE_CURVE('',#594,#595,#244,.T.);
#727=EDGE_CURVE('',#596,#597,#245,.T.);
#728=EDGE_CURVE('',#596,#598,#246,.T.);
#729=EDGE_CURVE('',#599,#598,#247,.T.);
#730=EDGE_CURVE('',#600,#599,#248,.T.);
#731=EDGE_CURVE('',#601,#600,#249,.T.);
#732=EDGE_CURVE('',#597,#601,#250,.T.);
#733=EDGE_CURVE('',#594,#596,#552,.T.);
#734=EDGE_CURVE('',#598,#595,#553,.T.);
#735=EDGE_CURVE('',#602,#590,#251,.T.);
#736=EDGE_CURVE('',#603,#602,#252,.T.);
#737=EDGE_CURVE('',#604,#603,#253,.T.);
#738=EDGE_CURVE('',#605,#604,#254,.T.);
#739=EDGE_CURVE('',#592,#605,#255,.T.);
#740=EDGE_CURVE('',#597,#606,#256,.T.);
#741=EDGE_CURVE('',#606,#607,#257,.T.);
#742=EDGE_CURVE('',#607,#608,#258,.T.);
#743=EDGE_CURVE('',#609,#608,#259,.T.);
#744=EDGE_CURVE('',#609,#602,#260,.T.);
#745=EDGE_CURVE('',#609,#610,#554,.T.);
#746=EDGE_CURVE('',#611,#610,#261,.T.);
#747=EDGE_CURVE('',#611,#612,#555,.T.);
#748=EDGE_CURVE('',#613,#612,#262,.T.);
#749=EDGE_CURVE('',#613,#614,#556,.T.);
#750=EDGE_CURVE('',#615,#614,#263,.T.);
#751=EDGE_CURVE('',#615,#606,#557,.T.);
#752=EDGE_CURVE('',#601,#616,#264,.T.);
#753=EDGE_CURVE('',#616,#617,#265,.T.);
#754=EDGE_CURVE('',#617,#618,#266,.T.);
#755=EDGE_CURVE('',#618,#619,#267,.T.);
#756=EDGE_CURVE('',#619,#620,#268,.T.);
#757=EDGE_CURVE('',#620,#621,#269,.T.);
#758=EDGE_CURVE('',#621,#622,#270,.T.);
#759=EDGE_CURVE('',#622,#623,#271,.T.);
#760=EDGE_CURVE('',#623,#624,#272,.T.);
#761=EDGE_CURVE('',#624,#625,#273,.T.);
#762=EDGE_CURVE('',#625,#626,#274,.T.);
#763=EDGE_CURVE('',#626,#627,#275,.T.);
#764=EDGE_CURVE('',#627,#628,#276,.T.);
#765=EDGE_CURVE('',#628,#629,#277,.T.);
#766=EDGE_CURVE('',#629,#630,#278,.T.);
#767=EDGE_CURVE('',#630,#631,#279,.T.);
#768=EDGE_CURVE('',#631,#632,#280,.T.);
#769=EDGE_CURVE('',#632,#633,#281,.T.);
#770=EDGE_CURVE('',#633,#634,#282,.T.);
#771=EDGE_CURVE('',#634,#635,#283,.T.);
#772=EDGE_CURVE('',#635,#636,#284,.T.);
#773=EDGE_CURVE('',#636,#637,#285,.T.);
#774=EDGE_CURVE('',#637,#638,#286,.T.);
#775=EDGE_CURVE('',#638,#639,#287,.T.);
#776=EDGE_CURVE('',#639,#640,#288,.T.);
#777=EDGE_CURVE('',#640,#641,#289,.T.);
#778=EDGE_CURVE('',#641,#642,#290,.T.);
#779=EDGE_CURVE('',#642,#643,#291,.T.);
#780=EDGE_CURVE('',#643,#644,#292,.T.);
#781=EDGE_CURVE('',#644,#645,#293,.T.);
#782=EDGE_CURVE('',#645,#603,#294,.T.);
#783=EDGE_CURVE('',#646,#646,#558,.T.);
#784=EDGE_CURVE('',#647,#647,#559,.T.);
#785=EDGE_CURVE('',#648,#648,#560,.T.);
#786=EDGE_CURVE('',#649,#649,#561,.T.);
#787=EDGE_CURVE('',#600,#650,#295,.T.);
#788=EDGE_CURVE('',#616,#650,#296,.T.);
#789=EDGE_CURVE('',#651,#652,#562,.T.);
#790=EDGE_CURVE('',#612,#652,#297,.T.);
#791=EDGE_CURVE('',#611,#651,#298,.T.);
#792=EDGE_CURVE('',#653,#651,#299,.T.);
#793=EDGE_CURVE('',#610,#653,#300,.T.);
#794=EDGE_CURVE('',#608,#653,#563,.T.);
#795=EDGE_CURVE('',#654,#607,#564,.T.);
#796=EDGE_CURVE('',#615,#654,#301,.T.);
#797=EDGE_CURVE('',#655,#654,#302,.T.);
#798=EDGE_CURVE('',#614,#655,#303,.T.);
#799=EDGE_CURVE('',#656,#655,#565,.T.);
#800=EDGE_CURVE('',#613,#656,#304,.T.);
#801=EDGE_CURVE('',#652,#656,#305,.T.);
#802=EDGE_CURVE('',#642,#657,#306,.T.);
#803=EDGE_CURVE('',#657,#658,#307,.T.);
#804=EDGE_CURVE('',#643,#658,#308,.T.);
#805=EDGE_CURVE('',#659,#644,#309,.T.);
#806=EDGE_CURVE('',#659,#660,#310,.T.);
#807=EDGE_CURVE('',#645,#660,#311,.T.);
#808=EDGE_CURVE('',#650,#661,#312,.T.);
#809=EDGE_CURVE('',#617,#661,#313,.T.);
#810=EDGE_CURVE('',#662,#619,#314,.T.);
#811=EDGE_CURVE('',#618,#663,#315,.T.);
#812=EDGE_CURVE('',#663,#664,#316,.T.);
#813=EDGE_CURVE('',#665,#664,#317,.T.);
#814=EDGE_CURVE('',#665,#666,#318,.T.);
#815=EDGE_CURVE('',#623,#666,#319,.T.);
#816=EDGE_CURVE('',#622,#667,#320,.T.);
#817=EDGE_CURVE('',#667,#662,#321,.T.);
#818=EDGE_CURVE('',#662,#668,#322,.T.);
#819=EDGE_CURVE('',#620,#668,#323,.T.);
#820=EDGE_CURVE('',#668,#669,#324,.T.);
#821=EDGE_CURVE('',#621,#669,#325,.T.);
#822=EDGE_CURVE('',#669,#667,#326,.T.);
#823=EDGE_CURVE('',#666,#670,#327,.T.);
#824=EDGE_CURVE('',#624,#670,#328,.T.);
#825=EDGE_CURVE('',#670,#671,#329,.T.);
#826=EDGE_CURVE('',#625,#671,#330,.T.);
#827=EDGE_CURVE('',#672,#626,#331,.T.);
#828=EDGE_CURVE('',#672,#673,#332,.T.);
#829=EDGE_CURVE('',#627,#673,#333,.T.);
#830=EDGE_CURVE('',#673,#674,#334,.T.);
#831=EDGE_CURVE('',#628,#674,#335,.T.);
#832=EDGE_CURVE('',#674,#675,#336,.T.);
#833=EDGE_CURVE('',#629,#675,#337,.T.);
#834=EDGE_CURVE('',#676,#630,#338,.T.);
#835=EDGE_CURVE('',#676,#677,#339,.T.);
#836=EDGE_CURVE('',#631,#677,#340,.T.);
#837=EDGE_CURVE('',#677,#678,#341,.T.);
#838=EDGE_CURVE('',#632,#678,#342,.T.);
#839=EDGE_CURVE('',#636,#679,#343,.T.);
#840=EDGE_CURVE('',#679,#680,#344,.T.);
#841=EDGE_CURVE('',#680,#633,#345,.T.);
#842=EDGE_CURVE('',#678,#681,#346,.T.);
#843=EDGE_CURVE('',#681,#682,#347,.T.);
#844=EDGE_CURVE('',#682,#683,#348,.T.);
#845=EDGE_CURVE('',#684,#683,#349,.T.);
#846=EDGE_CURVE('',#684,#685,#350,.T.);
#847=EDGE_CURVE('',#637,#685,#351,.T.);
#848=EDGE_CURVE('',#680,#686,#352,.T.);
#849=EDGE_CURVE('',#634,#686,#353,.T.);
#850=EDGE_CURVE('',#686,#687,#354,.T.);
#851=EDGE_CURVE('',#635,#687,#355,.T.);
#852=EDGE_CURVE('',#687,#679,#356,.T.);
#853=EDGE_CURVE('',#685,#688,#357,.T.);
#854=EDGE_CURVE('',#638,#688,#358,.T.);
#855=EDGE_CURVE('',#688,#689,#359,.T.);
#856=EDGE_CURVE('',#639,#689,#360,.T.);
#857=EDGE_CURVE('',#690,#640,#361,.T.);
#858=EDGE_CURVE('',#690,#691,#362,.T.);
#859=EDGE_CURVE('',#641,#691,#363,.T.);
#860=EDGE_CURVE('',#691,#657,#364,.T.);
#861=EDGE_CURVE('',#658,#690,#365,.T.);
#862=EDGE_CURVE('',#692,#692,#566,.T.);
#863=EDGE_CURVE('',#689,#684,#366,.T.);
#864=EDGE_CURVE('',#693,#694,#567,.T.);
#865=EDGE_CURVE('',#683,#694,#367,.T.);
#866=EDGE_CURVE('',#695,#682,#368,.T.);
#867=EDGE_CURVE('',#695,#696,#568,.T.);
#868=EDGE_CURVE('',#664,#696,#369,.T.);
#869=EDGE_CURVE('',#693,#663,#370,.T.);
#870=EDGE_CURVE('',#671,#665,#371,.T.);
#871=EDGE_CURVE('',#675,#672,#372,.T.);
#872=EDGE_CURVE('',#697,#697,#569,.T.);
#873=EDGE_CURVE('',#681,#676,#373,.T.);
#874=EDGE_CURVE('',#698,#698,#570,.T.);
#875=EDGE_CURVE('',#699,#699,#571,.T.);
#876=EDGE_CURVE('',#700,#700,#572,.T.);
#877=EDGE_CURVE('',#701,#701,#573,.T.);
#878=EDGE_CURVE('',#702,#702,#574,.T.);
#879=EDGE_CURVE('',#703,#703,#575,.T.);
#880=EDGE_CURVE('',#696,#704,#374,.T.);
#881=EDGE_CURVE('',#704,#705,#375,.T.);
#882=EDGE_CURVE('',#705,#695,#376,.T.);
#883=EDGE_CURVE('',#706,#706,#576,.T.);
#884=EDGE_CURVE('',#706,#646,#377,.T.);
#885=EDGE_CURVE('',#698,#707,#378,.T.);
#886=EDGE_CURVE('',#707,#707,#577,.T.);
#887=EDGE_CURVE('',#708,#708,#578,.T.);
#888=EDGE_CURVE('',#708,#697,#379,.T.);
#889=EDGE_CURVE('',#699,#709,#380,.T.);
#890=EDGE_CURVE('',#709,#704,#579,.T.);
#891=EDGE_CURVE('',#705,#709,#580,.T.);
#892=EDGE_CURVE('',#710,#710,#581,.T.);
#893=EDGE_CURVE('',#710,#647,#381,.T.);
#894=EDGE_CURVE('',#700,#711,#382,.T.);
#895=EDGE_CURVE('',#711,#711,#582,.T.);
#896=EDGE_CURVE('',#712,#712,#583,.T.);
#897=EDGE_CURVE('',#712,#692,#383,.T.);
#898=EDGE_CURVE('',#701,#713,#384,.T.);
#899=EDGE_CURVE('',#713,#714,#584,.T.);
#900=EDGE_CURVE('',#694,#714,#385,.T.);
#901=EDGE_CURVE('',#715,#693,#386,.T.);
#902=EDGE_CURVE('',#715,#713,#585,.T.);
#903=EDGE_CURVE('',#714,#715,#387,.T.);
#904=EDGE_CURVE('',#716,#716,#586,.T.);
#905=EDGE_CURVE('',#716,#648,#388,.T.);
#906=EDGE_CURVE('',#702,#717,#389,.T.);
#907=EDGE_CURVE('',#717,#717,#587,.T.);
#908=EDGE_CURVE('',#718,#718,#588,.T.);
#909=EDGE_CURVE('',#718,#649,#390,.T.);
#910=EDGE_CURVE('',#703,#719,#391,.T.);
#911=EDGE_CURVE('',#719,#719,#589,.T.);
#912=EDGE_CURVE('',#661,#599,#392,.T.);
#913=EDGE_CURVE('',#660,#604,#393,.T.);
#914=EDGE_CURVE('',#605,#659,#394,.T.);
#915=ORIENTED_EDGE('',*,*,#720,.F.);
#916=ORIENTED_EDGE('',*,*,#721,.T.);
#917=ORIENTED_EDGE('',*,*,#722,.F.);
#918=ORIENTED_EDGE('',*,*,#723,.F.);
#919=ORIENTED_EDGE('',*,*,#724,.F.);
#920=ORIENTED_EDGE('',*,*,#723,.T.);
#921=ORIENTED_EDGE('',*,*,#725,.F.);
#922=ORIENTED_EDGE('',*,*,#726,.F.);
#923=ORIENTED_EDGE('',*,*,#727,.F.);
#924=ORIENTED_EDGE('',*,*,#728,.T.);
#925=ORIENTED_EDGE('',*,*,#729,.F.);
#926=ORIENTED_EDGE('',*,*,#730,.F.);
#927=ORIENTED_EDGE('',*,*,#731,.F.);
#928=ORIENTED_EDGE('',*,*,#732,.F.);
#929=ORIENTED_EDGE('',*,*,#733,.F.);
#930=ORIENTED_EDGE('',*,*,#726,.T.);
#931=ORIENTED_EDGE('',*,*,#734,.F.);
#932=ORIENTED_EDGE('',*,*,#728,.F.);
#933=ORIENTED_EDGE('',*,*,#735,.F.);
#934=ORIENTED_EDGE('',*,*,#736,.F.);
#935=ORIENTED_EDGE('',*,*,#737,.F.);
#936=ORIENTED_EDGE('',*,*,#738,.F.);
#937=ORIENTED_EDGE('',*,*,#739,.F.);
#938=ORIENTED_EDGE('',*,*,#721,.F.);
#939=ORIENTED_EDGE('',*,*,#735,.T.);
#940=ORIENTED_EDGE('',*,*,#720,.T.);
#941=ORIENTED_EDGE('',*,*,#724,.T.);
#942=ORIENTED_EDGE('',*,*,#733,.T.);
#943=ORIENTED_EDGE('',*,*,#727,.T.);
#944=ORIENTED_EDGE('',*,*,#740,.T.);
#945=ORIENTED_EDGE('',*,*,#741,.T.);
#946=ORIENTED_EDGE('',*,*,#742,.T.);
#947=ORIENTED_EDGE('',*,*,#743,.F.);
#948=ORIENTED_EDGE('',*,*,#744,.T.);
#949=ORIENTED_EDGE('',*,*,#736,.T.);
#950=ORIENTED_EDGE('',*,*,#744,.F.);
#951=ORIENTED_EDGE('',*,*,#745,.T.);
#952=ORIENTED_EDGE('',*,*,#746,.F.);
#953=ORIENTED_EDGE('',*,*,#747,.T.);
#954=ORIENTED_EDGE('',*,*,#748,.F.);
#955=ORIENTED_EDGE('',*,*,#749,.T.);
#956=ORIENTED_EDGE('',*,*,#750,.F.);
#957=ORIENTED_EDGE('',*,*,#751,.T.);
#958=ORIENTED_EDGE('',*,*,#740,.F.);
#959=ORIENTED_EDGE('',*,*,#732,.T.);
#960=ORIENTED_EDGE('',*,*,#752,.T.);
#961=ORIENTED_EDGE('',*,*,#753,.T.);
#962=ORIENTED_EDGE('',*,*,#754,.T.);
#963=ORIENTED_EDGE('',*,*,#755,.T.);
#964=ORIENTED_EDGE('',*,*,#756,.T.);
#965=ORIENTED_EDGE('',*,*,#757,.T.);
#966=ORIENTED_EDGE('',*,*,#758,.T.);
#967=ORIENTED_EDGE('',*,*,#759,.T.);
#968=ORIENTED_EDGE('',*,*,#760,.T.);
#969=ORIENTED_EDGE('',*,*,#761,.T.);
#970=ORIENTED_EDGE('',*,*,#762,.T.);
#971=ORIENTED_EDGE('',*,*,#763,.T.);
#972=ORIENTED_EDGE('',*,*,#764,.T.);
#973=ORIENTED_EDGE('',*,*,#765,.T.);
#974=ORIENTED_EDGE('',*,*,#766,.T.);
#975=ORIENTED_EDGE('',*,*,#767,.T.);
#976=ORIENTED_EDGE('',*,*,#768,.T.);
#977=ORIENTED_EDGE('',*,*,#769,.T.);
#978=ORIENTED_EDGE('',*,*,#770,.T.);
#979=ORIENTED_EDGE('',*,*,#771,.T.);
#980=ORIENTED_EDGE('',*,*,#772,.T.);
#981=ORIENTED_EDGE('',*,*,#773,.T.);
#982=ORIENTED_EDGE('',*,*,#774,.T.);
#983=ORIENTED_EDGE('',*,*,#775,.T.);
#984=ORIENTED_EDGE('',*,*,#776,.T.);
#985=ORIENTED_EDGE('',*,*,#777,.T.);
#986=ORIENTED_EDGE('',*,*,#778,.T.);
#987=ORIENTED_EDGE('',*,*,#779,.T.);
#988=ORIENTED_EDGE('',*,*,#780,.T.);
#989=ORIENTED_EDGE('',*,*,#781,.T.);
#990=ORIENTED_EDGE('',*,*,#782,.T.);
#991=ORIENTED_EDGE('',*,*,#783,.T.);
#992=ORIENTED_EDGE('',*,*,#784,.T.);
#993=ORIENTED_EDGE('',*,*,#785,.T.);
#994=ORIENTED_EDGE('',*,*,#786,.T.);
#995=ORIENTED_EDGE('',*,*,#731,.T.);
#996=ORIENTED_EDGE('',*,*,#787,.T.);
#997=ORIENTED_EDGE('',*,*,#788,.F.);
#998=ORIENTED_EDGE('',*,*,#752,.F.);
#999=ORIENTED_EDGE('',*,*,#789,.T.);
#1000=ORIENTED_EDGE('',*,*,#790,.F.);
#1001=ORIENTED_EDGE('',*,*,#747,.F.);
#1002=ORIENTED_EDGE('',*,*,#791,.T.);
#1003=ORIENTED_EDGE('',*,*,#792,.T.);
#1004=ORIENTED_EDGE('',*,*,#791,.F.);
#1005=ORIENTED_EDGE('',*,*,#746,.T.);
#1006=ORIENTED_EDGE('',*,*,#793,.T.);
#1007=ORIENTED_EDGE('',*,*,#794,.T.);
#1008=ORIENTED_EDGE('',*,*,#793,.F.);
#1009=ORIENTED_EDGE('',*,*,#745,.F.);
#1010=ORIENTED_EDGE('',*,*,#743,.T.);
#1011=ORIENTED_EDGE('',*,*,#795,.T.);
#1012=ORIENTED_EDGE('',*,*,#741,.F.);
#1013=ORIENTED_EDGE('',*,*,#751,.F.);
#1014=ORIENTED_EDGE('',*,*,#796,.T.);
#1015=ORIENTED_EDGE('',*,*,#797,.T.);
#1016=ORIENTED_EDGE('',*,*,#796,.F.);
#1017=ORIENTED_EDGE('',*,*,#750,.T.);
#1018=ORIENTED_EDGE('',*,*,#798,.T.);
#1019=ORIENTED_EDGE('',*,*,#799,.T.);
#1020=ORIENTED_EDGE('',*,*,#798,.F.);
#1021=ORIENTED_EDGE('',*,*,#749,.F.);
#1022=ORIENTED_EDGE('',*,*,#800,.T.);
#1023=ORIENTED_EDGE('',*,*,#801,.T.);
#1024=ORIENTED_EDGE('',*,*,#800,.F.);
#1025=ORIENTED_EDGE('',*,*,#748,.T.);
#1026=ORIENTED_EDGE('',*,*,#790,.T.);
#1027=ORIENTED_EDGE('',*,*,#779,.F.);
#1028=ORIENTED_EDGE('',*,*,#802,.T.);
#1029=ORIENTED_EDGE('',*,*,#803,.T.);
#1030=ORIENTED_EDGE('',*,*,#804,.F.);
#1031=ORIENTED_EDGE('',*,*,#781,.F.);
#1032=ORIENTED_EDGE('',*,*,#805,.F.);
#1033=ORIENTED_EDGE('',*,*,#806,.T.);
#1034=ORIENTED_EDGE('',*,*,#807,.F.);
#1035=ORIENTED_EDGE('',*,*,#753,.F.);
#1036=ORIENTED_EDGE('',*,*,#788,.T.);
#1037=ORIENTED_EDGE('',*,*,#808,.T.);
#1038=ORIENTED_EDGE('',*,*,#809,.F.);
#1039=ORIENTED_EDGE('',*,*,#810,.T.);
#1040=ORIENTED_EDGE('',*,*,#755,.F.);
#1041=ORIENTED_EDGE('',*,*,#811,.T.);
#1042=ORIENTED_EDGE('',*,*,#812,.T.);
#1043=ORIENTED_EDGE('',*,*,#813,.F.);
#1044=ORIENTED_EDGE('',*,*,#814,.T.);
#1045=ORIENTED_EDGE('',*,*,#815,.F.);
#1046=ORIENTED_EDGE('',*,*,#759,.F.);
#1047=ORIENTED_EDGE('',*,*,#816,.T.);
#1048=ORIENTED_EDGE('',*,*,#817,.T.);
#1049=ORIENTED_EDGE('',*,*,#810,.F.);
#1050=ORIENTED_EDGE('',*,*,#818,.T.);
#1051=ORIENTED_EDGE('',*,*,#819,.F.);
#1052=ORIENTED_EDGE('',*,*,#756,.F.);
#1053=ORIENTED_EDGE('',*,*,#757,.F.);
#1054=ORIENTED_EDGE('',*,*,#819,.T.);
#1055=ORIENTED_EDGE('',*,*,#820,.T.);
#1056=ORIENTED_EDGE('',*,*,#821,.F.);
#1057=ORIENTED_EDGE('',*,*,#816,.F.);
#1058=ORIENTED_EDGE('',*,*,#758,.F.);
#1059=ORIENTED_EDGE('',*,*,#821,.T.);
#1060=ORIENTED_EDGE('',*,*,#822,.T.);
#1061=ORIENTED_EDGE('',*,*,#760,.F.);
#1062=ORIENTED_EDGE('',*,*,#815,.T.);
#1063=ORIENTED_EDGE('',*,*,#823,.T.);
#1064=ORIENTED_EDGE('',*,*,#824,.F.);
#1065=ORIENTED_EDGE('',*,*,#761,.F.);
#1066=ORIENTED_EDGE('',*,*,#824,.T.);
#1067=ORIENTED_EDGE('',*,*,#825,.T.);
#1068=ORIENTED_EDGE('',*,*,#826,.F.);
#1069=ORIENTED_EDGE('',*,*,#763,.F.);
#1070=ORIENTED_EDGE('',*,*,#827,.F.);
#1071=ORIENTED_EDGE('',*,*,#828,.T.);
#1072=ORIENTED_EDGE('',*,*,#829,.F.);
#1073=ORIENTED_EDGE('',*,*,#764,.F.);
#1074=ORIENTED_EDGE('',*,*,#829,.T.);
#1075=ORIENTED_EDGE('',*,*,#830,.T.);
#1076=ORIENTED_EDGE('',*,*,#831,.F.);
#1077=ORIENTED_EDGE('',*,*,#765,.F.);
#1078=ORIENTED_EDGE('',*,*,#831,.T.);
#1079=ORIENTED_EDGE('',*,*,#832,.T.);
#1080=ORIENTED_EDGE('',*,*,#833,.F.);
#1081=ORIENTED_EDGE('',*,*,#767,.F.);
#1082=ORIENTED_EDGE('',*,*,#834,.F.);
#1083=ORIENTED_EDGE('',*,*,#835,.T.);
#1084=ORIENTED_EDGE('',*,*,#836,.F.);
#1085=ORIENTED_EDGE('',*,*,#768,.F.);
#1086=ORIENTED_EDGE('',*,*,#836,.T.);
#1087=ORIENTED_EDGE('',*,*,#837,.T.);
#1088=ORIENTED_EDGE('',*,*,#838,.F.);
#1089=ORIENTED_EDGE('',*,*,#839,.T.);
#1090=ORIENTED_EDGE('',*,*,#840,.T.);
#1091=ORIENTED_EDGE('',*,*,#841,.T.);
#1092=ORIENTED_EDGE('',*,*,#769,.F.);
#1093=ORIENTED_EDGE('',*,*,#838,.T.);
#1094=ORIENTED_EDGE('',*,*,#842,.T.);
#1095=ORIENTED_EDGE('',*,*,#843,.T.);
#1096=ORIENTED_EDGE('',*,*,#844,.T.);
#1097=ORIENTED_EDGE('',*,*,#845,.F.);
#1098=ORIENTED_EDGE('',*,*,#846,.T.);
#1099=ORIENTED_EDGE('',*,*,#847,.F.);
#1100=ORIENTED_EDGE('',*,*,#773,.F.);
#1101=ORIENTED_EDGE('',*,*,#770,.F.);
#1102=ORIENTED_EDGE('',*,*,#841,.F.);
#1103=ORIENTED_EDGE('',*,*,#848,.T.);
#1104=ORIENTED_EDGE('',*,*,#849,.F.);
#1105=ORIENTED_EDGE('',*,*,#771,.F.);
#1106=ORIENTED_EDGE('',*,*,#849,.T.);
#1107=ORIENTED_EDGE('',*,*,#850,.T.);
#1108=ORIENTED_EDGE('',*,*,#851,.F.);
#1109=ORIENTED_EDGE('',*,*,#772,.F.);
#1110=ORIENTED_EDGE('',*,*,#851,.T.);
#1111=ORIENTED_EDGE('',*,*,#852,.T.);
#1112=ORIENTED_EDGE('',*,*,#839,.F.);
#1113=ORIENTED_EDGE('',*,*,#774,.F.);
#1114=ORIENTED_EDGE('',*,*,#847,.T.);
#1115=ORIENTED_EDGE('',*,*,#853,.T.);
#1116=ORIENTED_EDGE('',*,*,#854,.F.);
#1117=ORIENTED_EDGE('',*,*,#775,.F.);
#1118=ORIENTED_EDGE('',*,*,#854,.T.);
#1119=ORIENTED_EDGE('',*,*,#855,.T.);
#1120=ORIENTED_EDGE('',*,*,#856,.F.);
#1121=ORIENTED_EDGE('',*,*,#777,.F.);
#1122=ORIENTED_EDGE('',*,*,#857,.F.);
#1123=ORIENTED_EDGE('',*,*,#858,.T.);
#1124=ORIENTED_EDGE('',*,*,#859,.F.);
#1125=ORIENTED_EDGE('',*,*,#778,.F.);
#1126=ORIENTED_EDGE('',*,*,#859,.T.);
#1127=ORIENTED_EDGE('',*,*,#860,.T.);
#1128=ORIENTED_EDGE('',*,*,#802,.F.);
#1129=ORIENTED_EDGE('',*,*,#860,.F.);
#1130=ORIENTED_EDGE('',*,*,#858,.F.);
#1131=ORIENTED_EDGE('',*,*,#861,.F.);
#1132=ORIENTED_EDGE('',*,*,#803,.F.);
#1133=ORIENTED_EDGE('',*,*,#862,.T.);
#1134=ORIENTED_EDGE('',*,*,#863,.F.);
#1135=ORIENTED_EDGE('',*,*,#855,.F.);
#1136=ORIENTED_EDGE('',*,*,#853,.F.);
#1137=ORIENTED_EDGE('',*,*,#846,.F.);
#1138=ORIENTED_EDGE('',*,*,#864,.T.);
#1139=ORIENTED_EDGE('',*,*,#865,.F.);
#1140=ORIENTED_EDGE('',*,*,#844,.F.);
#1141=ORIENTED_EDGE('',*,*,#866,.F.);
#1142=ORIENTED_EDGE('',*,*,#867,.T.);
#1143=ORIENTED_EDGE('',*,*,#868,.F.);
#1144=ORIENTED_EDGE('',*,*,#812,.F.);
#1145=ORIENTED_EDGE('',*,*,#869,.F.);
#1146=ORIENTED_EDGE('',*,*,#814,.F.);
#1147=ORIENTED_EDGE('',*,*,#870,.F.);
#1148=ORIENTED_EDGE('',*,*,#825,.F.);
#1149=ORIENTED_EDGE('',*,*,#823,.F.);
#1150=ORIENTED_EDGE('',*,*,#817,.F.);
#1151=ORIENTED_EDGE('',*,*,#822,.F.);
#1152=ORIENTED_EDGE('',*,*,#820,.F.);
#1153=ORIENTED_EDGE('',*,*,#818,.F.);
#1154=ORIENTED_EDGE('',*,*,#871,.F.);
#1155=ORIENTED_EDGE('',*,*,#832,.F.);
#1156=ORIENTED_EDGE('',*,*,#830,.F.);
#1157=ORIENTED_EDGE('',*,*,#828,.F.);
#1158=ORIENTED_EDGE('',*,*,#872,.T.);
#1159=ORIENTED_EDGE('',*,*,#835,.F.);
#1160=ORIENTED_EDGE('',*,*,#873,.F.);
#1161=ORIENTED_EDGE('',*,*,#842,.F.);
#1162=ORIENTED_EDGE('',*,*,#837,.F.);
#1163=ORIENTED_EDGE('',*,*,#840,.F.);
#1164=ORIENTED_EDGE('',*,*,#852,.F.);
#1165=ORIENTED_EDGE('',*,*,#850,.F.);
#1166=ORIENTED_EDGE('',*,*,#848,.F.);
#1167=ORIENTED_EDGE('',*,*,#789,.F.);
#1168=ORIENTED_EDGE('',*,*,#792,.F.);
#1169=ORIENTED_EDGE('',*,*,#794,.F.);
#1170=ORIENTED_EDGE('',*,*,#742,.F.);
#1171=ORIENTED_EDGE('',*,*,#795,.F.);
#1172=ORIENTED_EDGE('',*,*,#797,.F.);
#1173=ORIENTED_EDGE('',*,*,#799,.F.);
#1174=ORIENTED_EDGE('',*,*,#801,.F.);
#1175=ORIENTED_EDGE('',*,*,#874,.T.);
#1176=ORIENTED_EDGE('',*,*,#875,.T.);
#1177=ORIENTED_EDGE('',*,*,#876,.T.);
#1178=ORIENTED_EDGE('',*,*,#877,.T.);
#1179=ORIENTED_EDGE('',*,*,#878,.T.);
#1180=ORIENTED_EDGE('',*,*,#879,.T.);
#1181=ORIENTED_EDGE('',*,*,#880,.T.);
#1182=ORIENTED_EDGE('',*,*,#881,.T.);
#1183=ORIENTED_EDGE('',*,*,#882,.T.);
#1184=ORIENTED_EDGE('',*,*,#866,.T.);
#1185=ORIENTED_EDGE('',*,*,#843,.F.);
#1186=ORIENTED_EDGE('',*,*,#873,.T.);
#1187=ORIENTED_EDGE('',*,*,#834,.T.);
#1188=ORIENTED_EDGE('',*,*,#766,.F.);
#1189=ORIENTED_EDGE('',*,*,#833,.T.);
#1190=ORIENTED_EDGE('',*,*,#871,.T.);
#1191=ORIENTED_EDGE('',*,*,#827,.T.);
#1192=ORIENTED_EDGE('',*,*,#762,.F.);
#1193=ORIENTED_EDGE('',*,*,#826,.T.);
#1194=ORIENTED_EDGE('',*,*,#870,.T.);
#1195=ORIENTED_EDGE('',*,*,#813,.T.);
#1196=ORIENTED_EDGE('',*,*,#868,.T.);
#1197=ORIENTED_EDGE('',*,*,#883,.F.);
#1198=ORIENTED_EDGE('',*,*,#884,.T.);
#1199=ORIENTED_EDGE('',*,*,#783,.F.);
#1200=ORIENTED_EDGE('',*,*,#884,.F.);
#1201=ORIENTED_EDGE('',*,*,#874,.F.);
#1202=ORIENTED_EDGE('',*,*,#885,.T.);
#1203=ORIENTED_EDGE('',*,*,#886,.T.);
#1204=ORIENTED_EDGE('',*,*,#885,.F.);
#1205=ORIENTED_EDGE('',*,*,#886,.F.);
#1206=ORIENTED_EDGE('',*,*,#883,.T.);
#1207=ORIENTED_EDGE('',*,*,#887,.F.);
#1208=ORIENTED_EDGE('',*,*,#888,.T.);
#1209=ORIENTED_EDGE('',*,*,#872,.F.);
#1210=ORIENTED_EDGE('',*,*,#888,.F.);
#1211=ORIENTED_EDGE('',*,*,#875,.F.);
#1212=ORIENTED_EDGE('',*,*,#889,.T.);
#1213=ORIENTED_EDGE('',*,*,#890,.T.);
#1214=ORIENTED_EDGE('',*,*,#880,.F.);
#1215=ORIENTED_EDGE('',*,*,#867,.F.);
#1216=ORIENTED_EDGE('',*,*,#882,.F.);
#1217=ORIENTED_EDGE('',*,*,#891,.T.);
#1218=ORIENTED_EDGE('',*,*,#889,.F.);
#1219=ORIENTED_EDGE('',*,*,#881,.F.);
#1220=ORIENTED_EDGE('',*,*,#890,.F.);
#1221=ORIENTED_EDGE('',*,*,#891,.F.);
#1222=ORIENTED_EDGE('',*,*,#887,.T.);
#1223=ORIENTED_EDGE('',*,*,#892,.F.);
#1224=ORIENTED_EDGE('',*,*,#893,.T.);
#1225=ORIENTED_EDGE('',*,*,#784,.F.);
#1226=ORIENTED_EDGE('',*,*,#893,.F.);
#1227=ORIENTED_EDGE('',*,*,#876,.F.);
#1228=ORIENTED_EDGE('',*,*,#894,.T.);
#1229=ORIENTED_EDGE('',*,*,#895,.T.);
#1230=ORIENTED_EDGE('',*,*,#894,.F.);
#1231=ORIENTED_EDGE('',*,*,#895,.F.);
#1232=ORIENTED_EDGE('',*,*,#892,.T.);
#1233=ORIENTED_EDGE('',*,*,#896,.F.);
#1234=ORIENTED_EDGE('',*,*,#897,.T.);
#1235=ORIENTED_EDGE('',*,*,#862,.F.);
#1236=ORIENTED_EDGE('',*,*,#897,.F.);
#1237=ORIENTED_EDGE('',*,*,#877,.F.);
#1238=ORIENTED_EDGE('',*,*,#898,.T.);
#1239=ORIENTED_EDGE('',*,*,#899,.T.);
#1240=ORIENTED_EDGE('',*,*,#900,.F.);
#1241=ORIENTED_EDGE('',*,*,#864,.F.);
#1242=ORIENTED_EDGE('',*,*,#901,.F.);
#1243=ORIENTED_EDGE('',*,*,#902,.T.);
#1244=ORIENTED_EDGE('',*,*,#898,.F.);
#1245=ORIENTED_EDGE('',*,*,#903,.F.);
#1246=ORIENTED_EDGE('',*,*,#899,.F.);
#1247=ORIENTED_EDGE('',*,*,#902,.F.);
#1248=ORIENTED_EDGE('',*,*,#896,.T.);
#1249=ORIENTED_EDGE('',*,*,#904,.F.);
#1250=ORIENTED_EDGE('',*,*,#905,.T.);
#1251=ORIENTED_EDGE('',*,*,#785,.F.);
#1252=ORIENTED_EDGE('',*,*,#905,.F.);
#1253=ORIENTED_EDGE('',*,*,#878,.F.);
#1254=ORIENTED_EDGE('',*,*,#906,.T.);
#1255=ORIENTED_EDGE('',*,*,#907,.T.);
#1256=ORIENTED_EDGE('',*,*,#906,.F.);
#1257=ORIENTED_EDGE('',*,*,#907,.F.);
#1258=ORIENTED_EDGE('',*,*,#904,.T.);
#1259=ORIENTED_EDGE('',*,*,#908,.F.);
#1260=ORIENTED_EDGE('',*,*,#909,.T.);
#1261=ORIENTED_EDGE('',*,*,#786,.F.);
#1262=ORIENTED_EDGE('',*,*,#909,.F.);
#1263=ORIENTED_EDGE('',*,*,#879,.F.);
#1264=ORIENTED_EDGE('',*,*,#910,.T.);
#1265=ORIENTED_EDGE('',*,*,#911,.T.);
#1266=ORIENTED_EDGE('',*,*,#910,.F.);
#1267=ORIENTED_EDGE('',*,*,#911,.F.);
#1268=ORIENTED_EDGE('',*,*,#908,.T.);
#1269=ORIENTED_EDGE('',*,*,#730,.T.);
#1270=ORIENTED_EDGE('',*,*,#912,.F.);
#1271=ORIENTED_EDGE('',*,*,#808,.F.);
#1272=ORIENTED_EDGE('',*,*,#787,.F.);
#1273=ORIENTED_EDGE('',*,*,#738,.T.);
#1274=ORIENTED_EDGE('',*,*,#913,.F.);
#1275=ORIENTED_EDGE('',*,*,#806,.F.);
#1276=ORIENTED_EDGE('',*,*,#914,.F.);
#1277=ORIENTED_EDGE('',*,*,#739,.T.);
#1278=ORIENTED_EDGE('',*,*,#914,.T.);
#1279=ORIENTED_EDGE('',*,*,#805,.T.);
#1280=ORIENTED_EDGE('',*,*,#780,.F.);
#1281=ORIENTED_EDGE('',*,*,#804,.T.);
#1282=ORIENTED_EDGE('',*,*,#861,.T.);
#1283=ORIENTED_EDGE('',*,*,#857,.T.);
#1284=ORIENTED_EDGE('',*,*,#776,.F.);
#1285=ORIENTED_EDGE('',*,*,#856,.T.);
#1286=ORIENTED_EDGE('',*,*,#863,.T.);
#1287=ORIENTED_EDGE('',*,*,#845,.T.);
#1288=ORIENTED_EDGE('',*,*,#865,.T.);
#1289=ORIENTED_EDGE('',*,*,#900,.T.);
#1290=ORIENTED_EDGE('',*,*,#903,.T.);
#1291=ORIENTED_EDGE('',*,*,#901,.T.);
#1292=ORIENTED_EDGE('',*,*,#869,.T.);
#1293=ORIENTED_EDGE('',*,*,#811,.F.);
#1294=ORIENTED_EDGE('',*,*,#754,.F.);
#1295=ORIENTED_EDGE('',*,*,#809,.T.);
#1296=ORIENTED_EDGE('',*,*,#912,.T.);
#1297=ORIENTED_EDGE('',*,*,#729,.T.);
#1298=ORIENTED_EDGE('',*,*,#734,.T.);
#1299=ORIENTED_EDGE('',*,*,#725,.T.);
#1300=ORIENTED_EDGE('',*,*,#722,.T.);
#1301=ORIENTED_EDGE('',*,*,#737,.T.);
#1302=ORIENTED_EDGE('',*,*,#782,.F.);
#1303=ORIENTED_EDGE('',*,*,#807,.T.);
#1304=ORIENTED_EDGE('',*,*,#913,.T.);
#1305=CYLINDRICAL_SURFACE('',#1406,0.499999999999996);
#1306=CYLINDRICAL_SURFACE('',#1411,0.499999999999972);
#1307=CYLINDRICAL_SURFACE('',#1426,3.00000000000001);
#1308=CYLINDRICAL_SURFACE('',#1429,3.00000000000003);
#1309=CYLINDRICAL_SURFACE('',#1431,2.99999999999997);
#1310=CYLINDRICAL_SURFACE('',#1434,3.00000000000004);
#1311=CYLINDRICAL_SURFACE('',#1479,1.9);
#1312=CYLINDRICAL_SURFACE('',#1481,2.3);
#1313=CYLINDRICAL_SURFACE('',#1484,1.9);
#1314=CYLINDRICAL_SURFACE('',#1486,2.3);
#1315=CYLINDRICAL_SURFACE('',#1490,1.9);
#1316=CYLINDRICAL_SURFACE('',#1492,2.3);
#1317=CYLINDRICAL_SURFACE('',#1495,1.9);
#1318=CYLINDRICAL_SURFACE('',#1497,2.3);
#1319=CYLINDRICAL_SURFACE('',#1501,1.9);
#1320=CYLINDRICAL_SURFACE('',#1503,2.3);
#1321=CYLINDRICAL_SURFACE('',#1506,1.9);
#1322=CYLINDRICAL_SURFACE('',#1508,2.3);
#1323=ADVANCED_FACE('',(#84),#1305,.F.);
#1324=ADVANCED_FACE('',(#85),#33,.F.);
#1325=ADVANCED_FACE('',(#86),#34,.F.);
#1326=ADVANCED_FACE('',(#87),#1306,.F.);
#1327=ADVANCED_FACE('',(#88),#35,.F.);
#1328=ADVANCED_FACE('',(#89),#36,.T.);
#1329=ADVANCED_FACE('',(#90,#15,#16,#17,#18),#37,.T.);
#1330=ADVANCED_FACE('',(#91),#38,.F.);
#1331=ADVANCED_FACE('',(#92),#1307,.T.);
#1332=ADVANCED_FACE('',(#93),#39,.T.);
#1333=ADVANCED_FACE('',(#94),#1308,.T.);
#1334=ADVANCED_FACE('',(#95),#1309,.T.);
#1335=ADVANCED_FACE('',(#96),#40,.T.);
#1336=ADVANCED_FACE('',(#97),#1310,.T.);
#1337=ADVANCED_FACE('',(#98),#41,.T.);
#1338=ADVANCED_FACE('',(#99),#42,.F.);
#1339=ADVANCED_FACE('',(#100),#43,.F.);
#1340=ADVANCED_FACE('',(#101),#44,.F.);
#1341=ADVANCED_FACE('',(#102),#45,.F.);
#1342=ADVANCED_FACE('',(#103),#46,.F.);
#1343=ADVANCED_FACE('',(#104),#47,.F.);
#1344=ADVANCED_FACE('',(#105),#48,.F.);
#1345=ADVANCED_FACE('',(#106),#49,.F.);
#1346=ADVANCED_FACE('',(#107),#50,.F.);
#1347=ADVANCED_FACE('',(#108),#51,.F.);
#1348=ADVANCED_FACE('',(#109),#52,.F.);
#1349=ADVANCED_FACE('',(#110),#53,.F.);
#1350=ADVANCED_FACE('',(#111),#54,.F.);
#1351=ADVANCED_FACE('',(#112),#55,.F.);
#1352=ADVANCED_FACE('',(#113),#56,.F.);
#1353=ADVANCED_FACE('',(#114),#57,.F.);
#1354=ADVANCED_FACE('',(#115),#58,.F.);
#1355=ADVANCED_FACE('',(#116),#59,.F.);
#1356=ADVANCED_FACE('',(#117),#60,.F.);
#1357=ADVANCED_FACE('',(#118),#61,.F.);
#1358=ADVANCED_FACE('',(#119),#62,.F.);
#1359=ADVANCED_FACE('',(#120),#63,.F.);
#1360=ADVANCED_FACE('',(#121,#19),#64,.F.);
#1361=ADVANCED_FACE('',(#122),#65,.F.);
#1362=ADVANCED_FACE('',(#123),#66,.F.);
#1363=ADVANCED_FACE('',(#124),#67,.F.);
#1364=ADVANCED_FACE('',(#125),#68,.F.);
#1365=ADVANCED_FACE('',(#126,#20),#69,.F.);
#1366=ADVANCED_FACE('',(#127),#70,.F.);
#1367=ADVANCED_FACE('',(#128),#71,.F.);
#1368=ADVANCED_FACE('',(#129,#21,#22,#23,#24,#25,#26),#72,.F.);
#1369=ADVANCED_FACE('',(#130),#73,.F.);
#1370=ADVANCED_FACE('',(#131),#1311,.F.);
#1371=ADVANCED_FACE('',(#132),#1312,.F.);
#1372=ADVANCED_FACE('',(#133,#27),#74,.F.);
#1373=ADVANCED_FACE('',(#134),#1313,.F.);
#1374=ADVANCED_FACE('',(#135),#1314,.F.);
#1375=ADVANCED_FACE('',(#136,#28),#75,.F.);
#1376=ADVANCED_FACE('',(#137),#1315,.F.);
#1377=ADVANCED_FACE('',(#138),#1316,.F.);
#1378=ADVANCED_FACE('',(#139,#29),#76,.F.);
#1379=ADVANCED_FACE('',(#140),#1317,.F.);
#1380=ADVANCED_FACE('',(#141),#1318,.F.);
#1381=ADVANCED_FACE('',(#142,#30),#77,.F.);
#1382=ADVANCED_FACE('',(#143),#1319,.F.);
#1383=ADVANCED_FACE('',(#144),#1320,.F.);
#1384=ADVANCED_FACE('',(#145,#31),#78,.F.);
#1385=ADVANCED_FACE('',(#146),#1321,.F.);
#1386=ADVANCED_FACE('',(#147),#1322,.F.);
#1387=ADVANCED_FACE('',(#148,#32),#79,.F.);
#1388=ADVANCED_FACE('',(#149),#80,.F.);
#1389=ADVANCED_FACE('',(#150),#81,.F.);
#1390=ADVANCED_FACE('',(#151),#82,.F.);
#1391=ADVANCED_FACE('',(#152),#83,.F.);
#1392=CLOSED_SHELL('',(#1323,#1324,#1325,#1326,#1327,#1328,#1329,#1330,
#1331,#1332,#1333,#1334,#1335,#1336,#1337,#1338,#1339,#1340,#1341,#1342,
#1343,#1344,#1345,#1346,#1347,#1348,#1349,#1350,#1351,#1352,#1353,#1354,
#1355,#1356,#1357,#1358,#1359,#1360,#1361,#1362,#1363,#1364,#1365,#1366,
#1367,#1368,#1369,#1370,#1371,#1372,#1373,#1374,#1375,#1376,#1377,#1378,
#1379,#1380,#1381,#1382,#1383,#1384,#1385,#1386,#1387,#1388,#1389,#1390,
#1391));
#1393=DERIVED_UNIT_ELEMENT(#1395,1.);
#1394=DERIVED_UNIT_ELEMENT(#2290,-3.);
#1395=(
MASS_UNIT()
NAMED_UNIT(*)
SI_UNIT(.KILO.,.GRAM.)
);
#1396=DERIVED_UNIT((#1393,#1394));
#1397=MEASURE_REPRESENTATION_ITEM('density measure',
POSITIVE_RATIO_MEASURE(7850.),#1396);
#1398=PROPERTY_DEFINITION_REPRESENTATION(#1403,#1400);
#1399=PROPERTY_DEFINITION_REPRESENTATION(#1404,#1401);
#1400=REPRESENTATION('material name',(#1402),#2287);
#1401=REPRESENTATION('density',(#1397),#2287);
#1402=DESCRIPTIVE_REPRESENTATION_ITEM('Steel','Steel');
#1403=PROPERTY_DEFINITION('material property','material name',#2297);
#1404=PROPERTY_DEFINITION('material property','density of part',#2297);
#1405=AXIS2_PLACEMENT_3D('',#1890,#1515,#1516);
#1406=AXIS2_PLACEMENT_3D('',#1891,#1517,#1518);
#1407=AXIS2_PLACEMENT_3D('',#1894,#1519,#1520);
#1408=AXIS2_PLACEMENT_3D('',#1898,#1522,#1523);
#1409=AXIS2_PLACEMENT_3D('',#1900,#1525,#1526);
#1410=AXIS2_PLACEMENT_3D('',#1906,#1530,#1531);
#1411=AXIS2_PLACEMENT_3D('',#1919,#1538,#1539);
#1412=AXIS2_PLACEMENT_3D('',#1920,#1540,#1541);
#1413=AXIS2_PLACEMENT_3D('',#1921,#1542,#1543);
#1414=AXIS2_PLACEMENT_3D('',#1922,#1544,#1545);
#1415=AXIS2_PLACEMENT_3D('',#1932,#1551,#1552);
#1416=AXIS2_PLACEMENT_3D('',#1942,#1558,#1559);
#1417=AXIS2_PLACEMENT_3D('',#1944,#1560,#1561);
#1418=AXIS2_PLACEMENT_3D('',#1948,#1563,#1564);
#1419=AXIS2_PLACEMENT_3D('',#1952,#1566,#1567);
#1420=AXIS2_PLACEMENT_3D('',#1955,#1569,#1570);
#1421=AXIS2_PLACEMENT_3D('',#2018,#1602,#1603);
#1422=AXIS2_PLACEMENT_3D('',#2020,#1604,#1605);
#1423=AXIS2_PLACEMENT_3D('',#2022,#1606,#1607);
#1424=AXIS2_PLACEMENT_3D('',#2024,#1608,#1609);
#1425=AXIS2_PLACEMENT_3D('',#2025,#1610,#1611);
#1426=AXIS2_PLACEMENT_3D('',#2029,#1614,#1615);
#1427=AXIS2_PLACEMENT_3D('',#2032,#1616,#1617);
#1428=AXIS2_PLACEMENT_3D('',#2035,#1620,#1621);
#1429=AXIS2_PLACEMENT_3D('',#2039,#1624,#1625);
#1430=AXIS2_PLACEMENT_3D('',#2040,#1626,#1627);
#1431=AXIS2_PLACEMENT_3D('',#2041,#1628,#1629);
#1432=AXIS2_PLACEMENT_3D('',#2043,#1630,#1631);
#1433=AXIS2_PLACEMENT_3D('',#2045,#1633,#1634);
#1434=AXIS2_PLACEMENT_3D('',#2049,#1637,#1638);
#1435=AXIS2_PLACEMENT_3D('',#2051,#1639,#1640);
#1436=AXIS2_PLACEMENT_3D('',#2053,#1642,#1643);
#1437=AXIS2_PLACEMENT_3D('',#2055,#1645,#1646);
#1438=AXIS2_PLACEMENT_3D('',#2061,#1650,#1651);
#1439=AXIS2_PLACEMENT_3D('',#2067,#1655,#1656);
#1440=AXIS2_PLACEMENT_3D('',#2071,#1659,#1660);
#1441=AXIS2_PLACEMENT_3D('',#2086,#1669,#1670);
#1442=AXIS2_PLACEMENT_3D('',#2090,#1673,#1674);
#1443=AXIS2_PLACEMENT_3D('',#2094,#1677,#1678);
#1444=AXIS2_PLACEMENT_3D('',#2096,#1680,#1681);
#1445=AXIS2_PLACEMENT_3D('',#2100,#1684,#1685);
#1446=AXIS2_PLACEMENT_3D('',#2104,#1688,#1689);
#1447=AXIS2_PLACEMENT_3D('',#2110,#1693,#1694);
#1448=AXIS2_PLACEMENT_3D('',#2114,#1697,#1698);
#1449=AXIS2_PLACEMENT_3D('',#2118,#1701,#1702);
#1450=AXIS2_PLACEMENT_3D('',#2124,#1706,#1707);
#1451=AXIS2_PLACEMENT_3D('',#2128,#1710,#1711);
#1452=AXIS2_PLACEMENT_3D('',#2145,#1721,#1722);
#1453=AXIS2_PLACEMENT_3D('',#2149,#1725,#1726);
#1454=AXIS2_PLACEMENT_3D('',#2153,#1729,#1730);
#1455=AXIS2_PLACEMENT_3D('',#2155,#1732,#1733);
#1456=AXIS2_PLACEMENT_3D('',#2159,#1736,#1737);
#1457=AXIS2_PLACEMENT_3D('',#2163,#1740,#1741);
#1458=AXIS2_PLACEMENT_3D('',#2169,#1745,#1746);
#1459=AXIS2_PLACEMENT_3D('',#2171,#1748,#1749);
#1460=AXIS2_PLACEMENT_3D('',#2174,#1751,#1752);
#1461=AXIS2_PLACEMENT_3D('',#2175,#1753,#1754);
#1462=AXIS2_PLACEMENT_3D('',#2177,#1756,#1757);
#1463=AXIS2_PLACEMENT_3D('',#2180,#1758,#1759);
#1464=AXIS2_PLACEMENT_3D('',#2185,#1762,#1763);
#1465=AXIS2_PLACEMENT_3D('',#2188,#1766,#1767);
#1466=AXIS2_PLACEMENT_3D('',#2190,#1769,#1770);
#1467=AXIS2_PLACEMENT_3D('',#2191,#1771,#1772);
#1468=AXIS2_PLACEMENT_3D('',#2194,#1774,#1775);
#1469=AXIS2_PLACEMENT_3D('',#2195,#1776,#1777);
#1470=AXIS2_PLACEMENT_3D('',#2197,#1779,#1780);
#1471=AXIS2_PLACEMENT_3D('',#2198,#1781,#1782);
#1472=AXIS2_PLACEMENT_3D('',#2200,#1783,#1784);
#1473=AXIS2_PLACEMENT_3D('',#2202,#1785,#1786);
#1474=AXIS2_PLACEMENT_3D('',#2204,#1787,#1788);
#1475=AXIS2_PLACEMENT_3D('',#2206,#1789,#1790);
#1476=AXIS2_PLACEMENT_3D('',#2208,#1791,#1792);
#1477=AXIS2_PLACEMENT_3D('',#2210,#1793,#1794);
#1478=AXIS2_PLACEMENT_3D('',#2211,#1795,#1796);
#1479=AXIS2_PLACEMENT_3D('',#2217,#1800,#1801);
#1480=AXIS2_PLACEMENT_3D('',#2219,#1802,#1803);
#1481=AXIS2_PLACEMENT_3D('',#2221,#1805,#1806);
#1482=AXIS2_PLACEMENT_3D('',#2224,#1808,#1809);
#1483=AXIS2_PLACEMENT_3D('',#2225,#1810,#1811);
#1484=AXIS2_PLACEMENT_3D('',#2226,#1812,#1813);
#1485=AXIS2_PLACEMENT_3D('',#2228,#1814,#1815);
#1486=AXIS2_PLACEMENT_3D('',#2230,#1817,#1818);
#1487=AXIS2_PLACEMENT_3D('',#2233,#1820,#1821);
#1488=AXIS2_PLACEMENT_3D('',#2234,#1822,#1823);
#1489=AXIS2_PLACEMENT_3D('',#2235,#1824,#1825);
#1490=AXIS2_PLACEMENT_3D('',#2236,#1826,#1827);
#1491=AXIS2_PLACEMENT_3D('',#2238,#1828,#1829);
#1492=AXIS2_PLACEMENT_3D('',#2240,#1831,#1832);
#1493=AXIS2_PLACEMENT_3D('',#2243,#1834,#1835);
#1494=AXIS2_PLACEMENT_3D('',#2244,#1836,#1837);
#1495=AXIS2_PLACEMENT_3D('',#2245,#1838,#1839);
#1496=AXIS2_PLACEMENT_3D('',#2247,#1840,#1841);
#1497=AXIS2_PLACEMENT_3D('',#2249,#1843,#1844);
#1498=AXIS2_PLACEMENT_3D('',#2253,#1846,#1847);
#1499=AXIS2_PLACEMENT_3D('',#2257,#1850,#1851);
#1500=AXIS2_PLACEMENT_3D('',#2258,#1852,#1853);
#1501=AXIS2_PLACEMENT_3D('',#2260,#1855,#1856);
#1502=AXIS2_PLACEMENT_3D('',#2262,#1857,#1858);
#1503=AXIS2_PLACEMENT_3D('',#2264,#1860,#1861);
#1504=AXIS2_PLACEMENT_3D('',#2267,#1863,#1864);
#1505=AXIS2_PLACEMENT_3D('',#2268,#1865,#1866);
#1506=AXIS2_PLACEMENT_3D('',#2269,#1867,#1868);
#1507=AXIS2_PLACEMENT_3D('',#2271,#1869,#1870);
#1508=AXIS2_PLACEMENT_3D('',#2273,#1872,#1873);
#1509=AXIS2_PLACEMENT_3D('',#2276,#1875,#1876);
#1510=AXIS2_PLACEMENT_3D('',#2277,#1877,#1878);
#1511=AXIS2_PLACEMENT_3D('',#2278,#1879,#1880);
#1512=AXIS2_PLACEMENT_3D('',#2280,#1882,#1883);
#1513=AXIS2_PLACEMENT_3D('',#2283,#1886,#1887);
#1514=AXIS2_PLACEMENT_3D('',#2284,#1888,#1889);
#1515=DIRECTION('axis',(0.,0.,1.));
#1516=DIRECTION('refdir',(1.,0.,0.));
#1517=DIRECTION('center_axis',(7.78676970696E-15,-1.,-3.37629467762719E-15));
#1518=DIRECTION('ref_axis',(-1.42108547152021E-13,3.37629467762608E-15,
-1.));
#1519=DIRECTION('center_axis',(-1.52729093334678E-16,-1.,0.));
#1520=DIRECTION('ref_axis',(-1.42108547152021E-13,3.37629467762608E-15,
-1.));
#1521=DIRECTION('',(7.78676970696E-15,-1.,-3.37629467762719E-15));
#1522=DIRECTION('center_axis',(0.,1.,0.));
#1523=DIRECTION('ref_axis',(-1.42108547152021E-13,3.37629467762608E-15,
-1.));
#1524=DIRECTION('',(7.78676970696E-15,-1.,-3.37629467762719E-15));
#1525=DIRECTION('center_axis',(8.92874338901608E-32,3.37629467762719E-15,
-1.));
#1526=DIRECTION('ref_axis',(1.,6.98296267768597E-15,2.36658271566306E-29));
#1527=DIRECTION('',(1.,-1.52729093334678E-16,-4.26370991054537E-31));
#1528=DIRECTION('',(-1.,0.,-8.92874338901608E-32));
#1529=DIRECTION('',(7.78676970696E-15,-1.,-3.37629467762719E-15));
#1530=DIRECTION('center_axis',(1.,7.78676970696016E-15,-4.73695157173395E-14));
#1531=DIRECTION('ref_axis',(4.73695157173396E-14,-3.38045903638022E-15,
1.));
#1532=DIRECTION('',(4.73695157173395E-14,-7.23470318721202E-30,1.));
#1533=DIRECTION('',(7.78676970696E-15,-1.,-3.37629467762719E-15));
#1534=DIRECTION('',(-4.73695157173395E-14,0.,-1.));
#1535=DIRECTION('',(7.78676970696016E-15,-1.,0.));
#1536=DIRECTION('',(-4.73695157173395E-14,0.,-1.));
#1537=DIRECTION('',(7.78676970696016E-15,-1.,0.));
#1538=DIRECTION('center_axis',(7.78676970696E-15,-1.,-3.37629467762719E-15));
#1539=DIRECTION('ref_axis',(1.,7.78676970696001E-15,-2.22044604925041E-15));
#1540=DIRECTION('center_axis',(-1.52729093334678E-16,-1.,0.));
#1541=DIRECTION('ref_axis',(1.,7.78676970696001E-15,-2.22044604925041E-15));
#1542=DIRECTION('center_axis',(0.,1.,0.));
#1543=DIRECTION('ref_axis',(1.,7.78676970696001E-15,-2.22044604925041E-15));
#1544=DIRECTION('center_axis',(-1.,-7.78676970695992E-15,-2.36847578586698E-14));
#1545=DIRECTION('ref_axis',(2.36847578586698E-14,3.38045903638071E-15,-1.));
#1546=DIRECTION('',(2.36847578586698E-14,-3.61735159360602E-30,-1.));
#1547=DIRECTION('',(-7.78676970695992E-15,1.,0.));
#1548=DIRECTION('',(-2.36847578586698E-14,0.,1.));
#1549=DIRECTION('',(-7.78676970695992E-15,1.,0.));
#1550=DIRECTION('',(-2.36847578586698E-14,0.,1.));
#1551=DIRECTION('center_axis',(1.52729093334678E-16,1.,0.));
#1552=DIRECTION('ref_axis',(1.,-1.52729093334678E-16,0.));
#1553=DIRECTION('',(1.,-1.52729093334678E-16,0.));
#1554=DIRECTION('',(0.,0.,-1.));
#1555=DIRECTION('',(-1.,1.52729093334678E-16,0.));
#1556=DIRECTION('',(0.,0.,-1.));
#1557=DIRECTION('',(1.,-1.52729093334678E-16,0.));
#1558=DIRECTION('center_axis',(0.,0.,1.));
#1559=DIRECTION('ref_axis',(1.,0.,0.));
#1560=DIRECTION('center_axis',(0.,0.,1.));
#1561=DIRECTION('ref_axis',(-1.11022302462514E-14,1.,0.));
#1562=DIRECTION('',(-2.25045207694289E-16,1.,0.));
#1563=DIRECTION('center_axis',(0.,0.,1.));
#1564=DIRECTION('ref_axis',(-1.,0.,0.));
#1565=DIRECTION('',(-1.,0.,0.));
#1566=DIRECTION('center_axis',(0.,0.,1.));
#1567=DIRECTION('ref_axis',(2.36847578586697E-14,-1.,0.));
#1568=DIRECTION('',(0.,-1.,0.));
#1569=DIRECTION('center_axis',(0.,0.,1.));
#1570=DIRECTION('ref_axis',(1.,1.48029736616689E-15,0.));
#1571=DIRECTION('',(1.,0.,0.));
#1572=DIRECTION('',(0.,-1.,0.));
#1573=DIRECTION('',(1.,0.,0.));
#1574=DIRECTION('',(0.,-1.,0.));
#1575=DIRECTION('',(1.,0.,0.));
#1576=DIRECTION('',(0.000905541327379666,-0.999999589997368,0.));
#1577=DIRECTION('',(-0.999999999999848,5.52251001269812E-7,0.));
#1578=DIRECTION('',(0.,-1.,0.));
#1579=DIRECTION('',(-1.,0.,0.));
#1580=DIRECTION('',(0.,1.,0.));
#1581=DIRECTION('',(-1.,0.,0.));
#1582=DIRECTION('',(0.,-1.,0.));
#1583=DIRECTION('',(-1.,0.,0.));
#1584=DIRECTION('',(0.,1.,0.));
#1585=DIRECTION('',(-1.,0.,0.));
#1586=DIRECTION('',(0.,-1.,0.));
#1587=DIRECTION('',(-1.,0.,0.));
#1588=DIRECTION('',(1.54197642309049E-17,1.,0.));
#1589=DIRECTION('',(-0.999999999999848,-5.52251001269819E-7,0.));
#1590=DIRECTION('',(0.000905541327379389,0.999999589997368,0.));
#1591=DIRECTION('',(1.,0.,0.));
#1592=DIRECTION('',(0.,1.,0.));
#1593=DIRECTION('',(1.,0.,0.));
#1594=DIRECTION('',(0.,-1.,0.));
#1595=DIRECTION('',(1.,0.,0.));
#1596=DIRECTION('',(0.,1.,0.));
#1597=DIRECTION('',(1.,0.,0.));
#1598=DIRECTION('',(0.,-1.,0.));
#1599=DIRECTION('',(1.,0.,0.));
#1600=DIRECTION('',(0.,1.,0.));
#1601=DIRECTION('',(1.,0.,0.));
#1602=DIRECTION('center_axis',(0.,0.,-1.));
#1603=DIRECTION('ref_axis',(-1.,0.,0.));
#1604=DIRECTION('center_axis',(0.,0.,-1.));
#1605=DIRECTION('ref_axis',(-1.,0.,0.));
#1606=DIRECTION('center_axis',(0.,0.,-1.));
#1607=DIRECTION('ref_axis',(-1.,0.,0.));
#1608=DIRECTION('center_axis',(0.,0.,-1.));
#1609=DIRECTION('ref_axis',(-1.,0.,0.));
#1610=DIRECTION('center_axis',(0.,1.,0.));
#1611=DIRECTION('ref_axis',(1.,0.,0.));
#1612=DIRECTION('',(1.,0.,0.));
#1613=DIRECTION('',(0.,0.,-1.));
#1614=DIRECTION('center_axis',(0.,0.,-1.));
#1615=DIRECTION('ref_axis',(-1.,0.,0.));
#1616=DIRECTION('center_axis',(0.,0.,1.));
#1617=DIRECTION('ref_axis',(-1.,0.,0.));
#1618=DIRECTION('',(0.,0.,-1.));
#1619=DIRECTION('',(0.,0.,-1.));
#1620=DIRECTION('center_axis',(-1.,-2.25045207694289E-16,0.));
#1621=DIRECTION('ref_axis',(-2.25045207694289E-16,1.,0.));
#1622=DIRECTION('',(2.25045207694289E-16,-1.,0.));
#1623=DIRECTION('',(0.,0.,-1.));
#1624=DIRECTION('center_axis',(0.,0.,-1.));
#1625=DIRECTION('ref_axis',(-1.11022302462514E-14,1.,0.));
#1626=DIRECTION('center_axis',(0.,0.,1.));
#1627=DIRECTION('ref_axis',(-1.11022302462514E-14,1.,0.));
#1628=DIRECTION('center_axis',(0.,0.,-1.));
#1629=DIRECTION('ref_axis',(1.,1.48029736616689E-15,0.));
#1630=DIRECTION('center_axis',(0.,0.,1.));
#1631=DIRECTION('ref_axis',(1.,1.48029736616689E-15,0.));
#1632=DIRECTION('',(0.,0.,-1.));
#1633=DIRECTION('center_axis',(1.,0.,0.));
#1634=DIRECTION('ref_axis',(0.,-1.,0.));
#1635=DIRECTION('',(0.,1.,0.));
#1636=DIRECTION('',(0.,0.,-1.));
#1637=DIRECTION('center_axis',(0.,0.,-1.));
#1638=DIRECTION('ref_axis',(2.36847578586697E-14,-1.,0.));
#1639=DIRECTION('center_axis',(0.,0.,1.));
#1640=DIRECTION('ref_axis',(2.36847578586697E-14,-1.,0.));
#1641=DIRECTION('',(0.,0.,-1.));
#1642=DIRECTION('center_axis',(0.,-1.,0.));
#1643=DIRECTION('ref_axis',(-1.,0.,0.));
#1644=DIRECTION('',(1.,0.,0.));
#1645=DIRECTION('center_axis',(1.,0.,0.));
#1646=DIRECTION('ref_axis',(0.,-1.,0.));
#1647=DIRECTION('',(0.,0.,-1.));
#1648=DIRECTION('',(0.,-1.,0.));
#1649=DIRECTION('',(0.,0.,-1.));
#1650=DIRECTION('center_axis',(-1.,0.,0.));
#1651=DIRECTION('ref_axis',(0.,1.,0.));
#1652=DIRECTION('',(0.,0.,1.));
#1653=DIRECTION('',(0.,1.,0.));
#1654=DIRECTION('',(0.,0.,-1.));
#1655=DIRECTION('center_axis',(1.,0.,0.));
#1656=DIRECTION('ref_axis',(0.,-1.,0.));
#1657=DIRECTION('',(0.,-1.,0.));
#1658=DIRECTION('',(0.,0.,-1.));
#1659=DIRECTION('center_axis',(1.,0.,0.));
#1660=DIRECTION('ref_axis',(0.,-1.,0.));
#1661=DIRECTION('',(0.,0.,1.));
#1662=DIRECTION('',(0.,0.,-1.));
#1663=DIRECTION('',(0.,-1.,0.));
#1664=DIRECTION('',(0.,0.,-1.));
#1665=DIRECTION('',(0.,-1.,0.));
#1666=DIRECTION('',(0.,0.,-1.));
#1667=DIRECTION('',(0.,0.,-1.));
#1668=DIRECTION('',(0.,1.,0.));
#1669=DIRECTION('center_axis',(0.,1.,0.));
#1670=DIRECTION('ref_axis',(1.,0.,0.));
#1671=DIRECTION('',(1.,0.,0.));
#1672=DIRECTION('',(0.,0.,-1.));
#1673=DIRECTION('center_axis',(0.999999589997368,0.000905541327379666,0.));
#1674=DIRECTION('ref_axis',(0.000905541327379666,-0.999999589997368,0.));
#1675=DIRECTION('',(0.000905541327379666,-0.999999589997368,0.));
#1676=DIRECTION('',(0.,0.,-1.));
#1677=DIRECTION('center_axis',(-5.52251001269812E-7,-0.999999999999848,
0.));
#1678=DIRECTION('ref_axis',(-0.999999999999848,5.52251001269812E-7,0.));
#1679=DIRECTION('',(-0.999999999999847,5.52251001269812E-7,0.));
#1680=DIRECTION('center_axis',(0.,-1.,0.));
#1681=DIRECTION('ref_axis',(-1.,0.,0.));
#1682=DIRECTION('',(-1.,0.,0.));
#1683=DIRECTION('',(0.,0.,-1.));
#1684=DIRECTION('center_axis',(-1.,0.,0.));
#1685=DIRECTION('ref_axis',(0.,1.,0.));
#1686=DIRECTION('',(0.,1.,0.));
#1687=DIRECTION('',(0.,0.,-1.));
#1688=DIRECTION('center_axis',(1.,0.,0.));
#1689=DIRECTION('ref_axis',(0.,-1.,0.));
#1690=DIRECTION('',(0.,0.,1.));
#1691=DIRECTION('',(0.,-1.,0.));
#1692=DIRECTION('',(0.,0.,-1.));
#1693=DIRECTION('center_axis',(0.,-1.,0.));
#1694=DIRECTION('ref_axis',(-1.,0.,0.));
#1695=DIRECTION('',(-1.,0.,0.));
#1696=DIRECTION('',(0.,0.,-1.));
#1697=DIRECTION('center_axis',(-1.,0.,0.));
#1698=DIRECTION('ref_axis',(0.,1.,0.));
#1699=DIRECTION('',(0.,1.,0.));
#1700=DIRECTION('',(0.,0.,-1.));
#1701=DIRECTION('center_axis',(1.,0.,0.));
#1702=DIRECTION('ref_axis',(0.,-1.,0.));
#1703=DIRECTION('',(0.,0.,1.));
#1704=DIRECTION('',(0.,-1.,0.));
#1705=DIRECTION('',(0.,0.,-1.));
#1706=DIRECTION('center_axis',(0.,-1.,0.));
#1707=DIRECTION('ref_axis',(-1.,0.,0.));
#1708=DIRECTION('',(-1.,0.,0.));
#1709=DIRECTION('',(0.,0.,-1.));
#1710=DIRECTION('center_axis',(-1.,1.54197642309049E-17,0.));
#1711=DIRECTION('ref_axis',(1.54197642309049E-17,1.,0.));
#1712=DIRECTION('',(0.,0.,-1.));
#1713=DIRECTION('',(-1.54197642309049E-17,-1.,0.));
#1714=DIRECTION('',(0.,0.,1.));
#1715=DIRECTION('',(0.,1.,0.));
#1716=DIRECTION('',(0.,0.,-1.));
#1717=DIRECTION('',(1.54197642309049E-17,1.,0.));
#1718=DIRECTION('',(0.,0.,-1.));
#1719=DIRECTION('',(0.,1.,0.));
#1720=DIRECTION('',(0.,0.,-1.));
#1721=DIRECTION('center_axis',(5.52251001269819E-7,-0.999999999999848,0.));
#1722=DIRECTION('ref_axis',(-0.999999999999848,-5.52251001269819E-7,0.));
#1723=DIRECTION('',(-0.999999999999848,-5.52251001269819E-7,0.));
#1724=DIRECTION('',(0.,0.,-1.));
#1725=DIRECTION('center_axis',(-0.999999589997368,0.000905541327379389,
0.));
#1726=DIRECTION('ref_axis',(0.000905541327379389,0.999999589997368,0.));
#1727=DIRECTION('',(0.000905541327379389,0.999999589997368,0.));
#1728=DIRECTION('',(0.,0.,-1.));
#1729=DIRECTION('center_axis',(0.,1.,0.));
#1730=DIRECTION('ref_axis',(1.,0.,0.));
#1731=DIRECTION('',(1.,0.,0.));
#1732=DIRECTION('center_axis',(0.,1.,0.));
#1733=DIRECTION('ref_axis',(1.,0.,0.));
#1734=DIRECTION('',(1.,0.,0.));
#1735=DIRECTION('',(0.,0.,-1.));
#1736=DIRECTION('center_axis',(1.,0.,0.));
#1737=DIRECTION('ref_axis',(0.,-1.,0.));
#1738=DIRECTION('',(0.,-1.,0.));
#1739=DIRECTION('',(0.,0.,-1.));
#1740=DIRECTION('center_axis',(-1.,0.,0.));
#1741=DIRECTION('ref_axis',(0.,1.,0.));
#1742=DIRECTION('',(0.,0.,1.));
#1743=DIRECTION('',(0.,1.,0.));
#1744=DIRECTION('',(0.,0.,-1.));
#1745=DIRECTION('center_axis',(0.,1.,0.));
#1746=DIRECTION('ref_axis',(1.,0.,0.));
#1747=DIRECTION('',(1.,0.,0.));
#1748=DIRECTION('center_axis',(0.,0.,-1.));
#1749=DIRECTION('ref_axis',(-1.,0.,0.));
#1750=DIRECTION('',(-1.,0.,0.));
#1751=DIRECTION('center_axis',(0.,0.,-1.));
#1752=DIRECTION('ref_axis',(-1.,0.,0.));
#1753=DIRECTION('center_axis',(0.,0.,-1.));
#1754=DIRECTION('ref_axis',(-1.,0.,0.));
#1755=DIRECTION('',(-1.,0.,0.));
#1756=DIRECTION('center_axis',(0.,0.,-1.));
#1757=DIRECTION('ref_axis',(-1.,0.,0.));
#1758=DIRECTION('center_axis',(0.,0.,-1.));
#1759=DIRECTION('ref_axis',(-1.,0.,0.));
#1760=DIRECTION('',(1.,0.,0.));
#1761=DIRECTION('',(-1.,0.,0.));
#1762=DIRECTION('center_axis',(0.,0.,-1.));
#1763=DIRECTION('ref_axis',(-1.,0.,0.));
#1764=DIRECTION('',(-1.,0.,0.));
#1765=DIRECTION('',(1.,0.,0.));
#1766=DIRECTION('center_axis',(0.,0.,-1.));
#1767=DIRECTION('ref_axis',(-1.,0.,0.));
#1768=DIRECTION('',(1.,0.,0.));
#1769=DIRECTION('center_axis',(0.,0.,-1.));
#1770=DIRECTION('ref_axis',(-1.,0.,0.));
#1771=DIRECTION('center_axis',(0.,0.,-1.));
#1772=DIRECTION('ref_axis',(-1.,0.,0.));
#1773=DIRECTION('',(1.,0.,0.));
#1774=DIRECTION('center_axis',(0.,0.,-1.));
#1775=DIRECTION('ref_axis',(-1.,0.,0.));
#1776=DIRECTION('center_axis',(0.,0.,-1.));
#1777=DIRECTION('ref_axis',(-1.,0.,0.));
#1778=DIRECTION('',(1.,0.,0.));
#1779=DIRECTION('center_axis',(0.,0.,-1.));
#1780=DIRECTION('ref_axis',(-1.,0.,0.));
#1781=DIRECTION('center_axis',(0.,0.,1.));
#1782=DIRECTION('ref_axis',(-1.,0.,0.));
#1783=DIRECTION('center_axis',(0.,0.,1.));
#1784=DIRECTION('ref_axis',(-1.,0.,0.));
#1785=DIRECTION('center_axis',(0.,0.,1.));
#1786=DIRECTION('ref_axis',(-1.,0.,0.));
#1787=DIRECTION('center_axis',(0.,0.,1.));
#1788=DIRECTION('ref_axis',(-1.,0.,0.));
#1789=DIRECTION('center_axis',(0.,0.,1.));
#1790=DIRECTION('ref_axis',(-1.,0.,0.));
#1791=DIRECTION('center_axis',(0.,0.,1.));
#1792=DIRECTION('ref_axis',(-1.,0.,0.));
#1793=DIRECTION('center_axis',(0.,0.,1.));
#1794=DIRECTION('ref_axis',(-1.,0.,0.));
#1795=DIRECTION('center_axis',(0.,-1.,0.));
#1796=DIRECTION('ref_axis',(-1.,0.,0.));
#1797=DIRECTION('',(0.,0.,1.));
#1798=DIRECTION('',(-1.,0.,0.));
#1799=DIRECTION('',(0.,0.,-1.));
#1800=DIRECTION('center_axis',(0.,0.,1.));
#1801=DIRECTION('ref_axis',(-1.,0.,0.));
#1802=DIRECTION('center_axis',(0.,0.,1.));
#1803=DIRECTION('ref_axis',(-1.,0.,0.));
#1804=DIRECTION('',(0.,0.,1.));
#1805=DIRECTION('center_axis',(0.,0.,1.));
#1806=DIRECTION('ref_axis',(-1.,0.,0.));
#1807=DIRECTION('',(0.,0.,1.));
#1808=DIRECTION('center_axis',(0.,0.,1.));
#1809=DIRECTION('ref_axis',(-1.,0.,0.));
#1810=DIRECTION('center_axis',(0.,0.,1.));
#1811=DIRECTION('ref_axis',(-1.,0.,0.));
#1812=DIRECTION('center_axis',(0.,0.,1.));
#1813=DIRECTION('ref_axis',(-1.,0.,0.));
#1814=DIRECTION('center_axis',(0.,0.,1.));
#1815=DIRECTION('ref_axis',(-1.,0.,0.));
#1816=DIRECTION('',(0.,0.,1.));
#1817=DIRECTION('center_axis',(0.,0.,1.));
#1818=DIRECTION('ref_axis',(-1.,0.,0.));
#1819=DIRECTION('',(0.,0.,1.));
#1820=DIRECTION('center_axis',(0.,0.,1.));
#1821=DIRECTION('ref_axis',(-1.,0.,0.));
#1822=DIRECTION('center_axis',(0.,0.,1.));
#1823=DIRECTION('ref_axis',(-1.,0.,0.));
#1824=DIRECTION('center_axis',(0.,0.,1.));
#1825=DIRECTION('ref_axis',(-1.,0.,0.));
#1826=DIRECTION('center_axis',(0.,0.,1.));
#1827=DIRECTION('ref_axis',(-1.,0.,0.));
#1828=DIRECTION('center_axis',(0.,0.,1.));
#1829=DIRECTION('ref_axis',(-1.,0.,0.));
#1830=DIRECTION('',(0.,0.,1.));
#1831=DIRECTION('center_axis',(0.,0.,1.));
#1832=DIRECTION('ref_axis',(-1.,0.,0.));
#1833=DIRECTION('',(0.,0.,1.));
#1834=DIRECTION('center_axis',(0.,0.,1.));
#1835=DIRECTION('ref_axis',(-1.,0.,0.));
#1836=DIRECTION('center_axis',(0.,0.,1.));
#1837=DIRECTION('ref_axis',(-1.,0.,0.));
#1838=DIRECTION('center_axis',(0.,0.,1.));
#1839=DIRECTION('ref_axis',(-1.,0.,0.));
#1840=DIRECTION('center_axis',(0.,0.,1.));
#1841=DIRECTION('ref_axis',(-1.,0.,0.));
#1842=DIRECTION('',(0.,0.,1.));
#1843=DIRECTION('center_axis',(0.,0.,1.));
#1844=DIRECTION('ref_axis',(-1.,0.,0.));
#1845=DIRECTION('',(0.,0.,1.));
#1846=DIRECTION('center_axis',(0.,0.,1.));
#1847=DIRECTION('ref_axis',(-1.,0.,0.));
#1848=DIRECTION('',(0.,0.,1.));
#1849=DIRECTION('',(0.,0.,-1.));
#1850=DIRECTION('center_axis',(0.,0.,1.));
#1851=DIRECTION('ref_axis',(-1.,0.,0.));
#1852=DIRECTION('center_axis',(0.,0.,1.));
#1853=DIRECTION('ref_axis',(-1.,0.,0.));
#1854=DIRECTION('',(1.,0.,0.));
#1855=DIRECTION('center_axis',(0.,0.,1.));
#1856=DIRECTION('ref_axis',(-1.,0.,0.));
#1857=DIRECTION('center_axis',(0.,0.,1.));
#1858=DIRECTION('ref_axis',(-1.,0.,0.));
#1859=DIRECTION('',(0.,0.,1.));
#1860=DIRECTION('center_axis',(0.,0.,1.));
#1861=DIRECTION('ref_axis',(-1.,0.,0.));
#1862=DIRECTION('',(0.,0.,1.));
#1863=DIRECTION('center_axis',(0.,0.,1.));
#1864=DIRECTION('ref_axis',(-1.,0.,0.));
#1865=DIRECTION('center_axis',(0.,0.,1.));
#1866=DIRECTION('ref_axis',(-1.,0.,0.));
#1867=DIRECTION('center_axis',(0.,0.,1.));
#1868=DIRECTION('ref_axis',(-1.,0.,0.));
#1869=DIRECTION('center_axis',(0.,0.,1.));
#1870=DIRECTION('ref_axis',(-1.,0.,0.));
#1871=DIRECTION('',(0.,0.,1.));
#1872=DIRECTION('center_axis',(0.,0.,1.));
#1873=DIRECTION('ref_axis',(-1.,0.,0.));
#1874=DIRECTION('',(0.,0.,1.));
#1875=DIRECTION('center_axis',(0.,0.,1.));
#1876=DIRECTION('ref_axis',(-1.,0.,0.));
#1877=DIRECTION('center_axis',(0.,0.,1.));
#1878=DIRECTION('ref_axis',(-1.,0.,0.));
#1879=DIRECTION('center_axis',(0.,0.,-1.));
#1880=DIRECTION('ref_axis',(-1.,0.,0.));
#1881=DIRECTION('',(-1.,0.,0.));
#1882=DIRECTION('center_axis',(0.,0.,-1.));
#1883=DIRECTION('ref_axis',(-1.,0.,0.));
#1884=DIRECTION('',(1.,0.,0.));
#1885=DIRECTION('',(-1.,0.,0.));
#1886=DIRECTION('center_axis',(0.,1.,0.));
#1887=DIRECTION('ref_axis',(1.,0.,0.));
#1888=DIRECTION('center_axis',(0.,1.,0.));
#1889=DIRECTION('ref_axis',(1.,0.,0.));
#1890=CARTESIAN_POINT('',(0.,0.,0.));
#1891=CARTESIAN_POINT('Origin',(359.513351235809,-21.9996816044919,-2.54439854913715));
#1892=CARTESIAN_POINT('',(359.013351235809,-22.,-2.54439854913715));
#1893=CARTESIAN_POINT('',(359.513351235809,-22.,-3.04439854913714));
#1894=CARTESIAN_POINT('Origin',(359.513351235809,-21.9999999999973,-2.54439854913715));
#1895=CARTESIAN_POINT('',(359.013351235809,-27.,-2.54439854913717));
#1896=CARTESIAN_POINT('',(359.013351235809,-21.9996816044919,-2.54439854913715));
#1897=CARTESIAN_POINT('',(359.513351235809,-27.,-3.04439854913716));
#1898=CARTESIAN_POINT('Origin',(359.513351235809,-26.9999999999973,-2.54439854913717));
#1899=CARTESIAN_POINT('',(359.513351235809,-21.9996816044919,-3.04439854913714));
#1900=CARTESIAN_POINT('Origin',(359.513351235809,-21.9996816044919,-3.04439854913714));
#1901=CARTESIAN_POINT('',(368.513351235809,-22.,-3.04439854913712));
#1902=CARTESIAN_POINT('',(188.256675617905,-22.,-3.04439854913714));
#1903=CARTESIAN_POINT('',(368.513351235809,-27.,-3.04439854913714));
#1904=CARTESIAN_POINT('',(189.256675617905,-27.,-3.04439854913716));
#1905=CARTESIAN_POINT('',(368.513351235809,-21.9996816044919,-3.04439854913712));
#1906=CARTESIAN_POINT('Origin',(369.013351235809,-21.9996816044919,-2.54439854913715));
#1907=CARTESIAN_POINT('',(369.013351235809,-22.,-2.54439854913715));
#1908=CARTESIAN_POINT('',(369.013351235809,-22.,0.));
#1909=CARTESIAN_POINT('',(369.013351235809,-22.,-1.27219927457691));
#1910=CARTESIAN_POINT('',(369.013351235809,-27.,-2.54439854913717));
#1911=CARTESIAN_POINT('',(369.013351235809,-21.9996816044919,-2.54439854913715));
#1912=CARTESIAN_POINT('',(369.013351235809,-27.,-1.5));
#1913=CARTESIAN_POINT('',(369.013351235809,-27.,-1.27219927457687));
#1914=CARTESIAN_POINT('',(369.013351235809,-23.0000003427267,-1.5));
#1915=CARTESIAN_POINT('',(369.013351235809,-23.4998409736092,-1.5));
#1916=CARTESIAN_POINT('',(369.013351235809,-23.0000003427267,0.));
#1917=CARTESIAN_POINT('',(369.013351235809,-23.0000003427267,-1.27219927456997));
#1918=CARTESIAN_POINT('',(369.01335123581,-60.4998408022453,0.));
#1919=CARTESIAN_POINT('Origin',(368.513351235809,-21.9996816044919,-2.54439854913715));
#1920=CARTESIAN_POINT('Origin',(368.513351235809,-21.9999999999973,-2.54439854913715));
#1921=CARTESIAN_POINT('Origin',(368.513351235809,-26.9999999999973,-2.54439854913717));
#1922=CARTESIAN_POINT('Origin',(359.013351235809,-21.9996816044919,0.0950000000000795));
#1923=CARTESIAN_POINT('',(359.013351235809,-22.,0.));
#1924=CARTESIAN_POINT('',(359.013351235809,-22.,0.04750000000409));
#1925=CARTESIAN_POINT('',(359.013351235809,-23.0000003427267,0.));
#1926=CARTESIAN_POINT('',(359.013351235809,-60.4998408022454,0.));
#1927=CARTESIAN_POINT('',(359.013351235809,-23.0000003427267,-1.5));
#1928=CARTESIAN_POINT('',(359.013351235809,-23.0000003427267,0.0475000000006202));
#1929=CARTESIAN_POINT('',(359.013351235809,-27.,-1.5));
#1930=CARTESIAN_POINT('',(359.013351235809,-23.4998409736093,-1.5));
#1931=CARTESIAN_POINT('',(359.013351235809,-27.,0.0475000000040663));
#1932=CARTESIAN_POINT('Origin',(17.,-22.,0.));
#1933=CARTESIAN_POINT('',(395.,-22.0000000000001,0.));
#1934=CARTESIAN_POINT('',(17.,-22.,0.));
#1935=CARTESIAN_POINT('',(395.,-22.0000000000001,-11.));
#1936=CARTESIAN_POINT('',(395.,-22.0000000000001,0.));
#1937=CARTESIAN_POINT('',(17.,-22.,-11.));
#1938=CARTESIAN_POINT('',(17.,-22.,-11.));
#1939=CARTESIAN_POINT('',(17.,-22.,0.));
#1940=CARTESIAN_POINT('',(17.,-22.,0.));
#1941=CARTESIAN_POINT('',(17.,-22.,0.));
#1942=CARTESIAN_POINT('Origin',(206.,-99.,0.));
#1943=CARTESIAN_POINT('',(14.,-25.,0.));
#1944=CARTESIAN_POINT('Origin',(17.,-25.,0.));
#1945=CARTESIAN_POINT('',(14.,-173.,0.));
#1946=CARTESIAN_POINT('',(14.,-173.,0.));
#1947=CARTESIAN_POINT('',(17.,-176.,0.));
#1948=CARTESIAN_POINT('Origin',(17.,-173.,0.));
#1949=CARTESIAN_POINT('',(395.,-176.,0.));
#1950=CARTESIAN_POINT('',(395.,-176.,0.));
#1951=CARTESIAN_POINT('',(398.,-173.,0.));
#1952=CARTESIAN_POINT('Origin',(395.,-173.,0.));
#1953=CARTESIAN_POINT('',(398.,-25.,0.));
#1954=CARTESIAN_POINT('',(398.,-25.,0.));
#1955=CARTESIAN_POINT('Origin',(395.,-25.,0.));
#1956=CARTESIAN_POINT('',(390.000000283122,-23.0000003427267,0.));
#1957=CARTESIAN_POINT('',(258.000000141561,-23.0000003427267,0.));
#1958=CARTESIAN_POINT('',(390.000000283122,-27.0000003427267,0.));
#1959=CARTESIAN_POINT('',(390.000000283122,-61.0000001713634,0.));
#1960=CARTESIAN_POINT('',(393.,-27.,0.));
#1961=CARTESIAN_POINT('',(112.5,-27.,0.));
#1962=CARTESIAN_POINT('',(393.,-59.0000005659601,0.));
#1963=CARTESIAN_POINT('',(393.,-63.,0.));
#1964=CARTESIAN_POINT('',(397.004838458162,-59.0000005659601,0.));
#1965=CARTESIAN_POINT('',(299.498599177737,-59.0000005659601,0.));
#1966=CARTESIAN_POINT('',(397.077281795582,-139.00000225323,0.));
#1967=CARTESIAN_POINT('',(397.022870964557,-78.9135025308593,0.));
#1968=CARTESIAN_POINT('',(393.,-139.000000001547,0.));
#1969=CARTESIAN_POINT('',(301.5386298528,-138.999949491914,0.));
#1970=CARTESIAN_POINT('',(393.000000283122,-175.000000342727,0.));
#1971=CARTESIAN_POINT('',(393.,-63.,0.));
#1972=CARTESIAN_POINT('',(313.000000283122,-175.000000342727,0.));
#1973=CARTESIAN_POINT('',(299.500000141561,-175.000000342727,0.));
#1974=CARTESIAN_POINT('',(313.000000283122,-171.000000342727,0.));
#1975=CARTESIAN_POINT('',(313.000000283122,-137.000000171363,0.));
#1976=CARTESIAN_POINT('',(246.000000283122,-171.000000342727,0.));
#1977=CARTESIAN_POINT('',(299.5,-171.,0.));
#1978=CARTESIAN_POINT('',(246.000000283122,-175.000000342727,0.));
#1979=CARTESIAN_POINT('',(246.000000283122,-135.000000171363,0.));
#1980=CARTESIAN_POINT('',(166.000000283122,-175.000000342727,0.));
#1981=CARTESIAN_POINT('',(226.000000141561,-175.000000342727,0.));
#1982=CARTESIAN_POINT('',(166.000000283122,-171.000000342727,0.));
#1983=CARTESIAN_POINT('',(166.000000283122,-137.000000171363,0.));
#1984=CARTESIAN_POINT('',(99.0000002831221,-171.000000342727,0.));
#1985=CARTESIAN_POINT('',(299.5,-171.,0.));
#1986=CARTESIAN_POINT('',(99.0000002831221,-175.000000342727,0.));
#1987=CARTESIAN_POINT('',(99.0000002831221,-135.000000171363,0.));
#1988=CARTESIAN_POINT('',(19.0000002831221,-175.000000342727,0.));
#1989=CARTESIAN_POINT('',(152.500000141561,-175.000000342727,0.));
#1990=CARTESIAN_POINT('',(19.,-139.000000001547,0.));
#1991=CARTESIAN_POINT('',(19.,-135.,0.));
#1992=CARTESIAN_POINT('',(14.9227182044178,-139.00000225323,0.));
#1993=CARTESIAN_POINT('',(112.500011044992,-138.999948366072,0.));
#1994=CARTESIAN_POINT('',(14.995161541838,-59.0000005659601,0.));
#1995=CARTESIAN_POINT('',(14.9409073667324,-118.913503374494,0.));
#1996=CARTESIAN_POINT('',(19.,-59.0000005659601,0.));
#1997=CARTESIAN_POINT('',(110.497580770919,-59.0000005659601,0.));
#1998=CARTESIAN_POINT('',(19.0000002831221,-23.0000003427267,0.));
#1999=CARTESIAN_POINT('',(19.0000002831221,-63.0000001713634,0.));
#2000=CARTESIAN_POINT('',(96.0000002831221,-23.0000003427267,0.));
#2001=CARTESIAN_POINT('',(112.500000141561,-23.0000003427267,0.));
#2002=CARTESIAN_POINT('',(96.0000002831221,-27.0000003427267,0.));
#2003=CARTESIAN_POINT('',(96.0000002831221,-61.0000001713634,0.));
#2004=CARTESIAN_POINT('',(163.000000283122,-27.0000003427267,0.));
#2005=CARTESIAN_POINT('',(112.5,-27.,0.));
#2006=CARTESIAN_POINT('',(163.000000283122,-23.0000003427267,0.));
#2007=CARTESIAN_POINT('',(163.000000283122,-63.0000001713634,0.));
#2008=CARTESIAN_POINT('',(243.000000283122,-23.0000003427267,0.));
#2009=CARTESIAN_POINT('',(184.500000141561,-23.0000003427267,0.));
#2010=CARTESIAN_POINT('',(243.000000283122,-27.0000003427267,0.));
#2011=CARTESIAN_POINT('',(243.000000283122,-61.0000001713634,0.));
#2012=CARTESIAN_POINT('',(310.000000283122,-27.0000003427267,0.));
#2013=CARTESIAN_POINT('',(112.5,-27.,0.));
#2014=CARTESIAN_POINT('',(310.000000283122,-23.0000003427267,0.));
#2015=CARTESIAN_POINT('',(310.000000283122,-63.0000001713634,0.));
#2016=CARTESIAN_POINT('',(258.000000141561,-23.0000003427267,0.));
#2017=CARTESIAN_POINT('',(18.9000002533197,-25.000000372529,0.));
#2018=CARTESIAN_POINT('Origin',(17.0000002533197,-25.000000372529,0.));
#2019=CARTESIAN_POINT('',(396.900005885959,-25.000000372529,0.));
#2020=CARTESIAN_POINT('Origin',(395.000005885959,-25.000000372529,0.));
#2021=CARTESIAN_POINT('',(396.900005885959,-173.000002577901,0.));
#2022=CARTESIAN_POINT('Origin',(395.000005885959,-173.000002577901,0.));
#2023=CARTESIAN_POINT('',(18.9000002533197,-173.000002577901,0.));
#2024=CARTESIAN_POINT('Origin',(17.0000002533197,-173.000002577901,0.));
#2025=CARTESIAN_POINT('Origin',(310.000000283122,-23.0000003427267,0.));
#2026=CARTESIAN_POINT('',(390.000000283122,-23.0000003427267,-1.5));
#2027=CARTESIAN_POINT('',(310.000000283122,-23.0000003427267,-1.5));
#2028=CARTESIAN_POINT('',(390.000000283122,-23.0000003427267,0.));
#2029=CARTESIAN_POINT('Origin',(17.,-173.,0.));
#2030=CARTESIAN_POINT('',(14.,-173.,-11.));
#2031=CARTESIAN_POINT('',(17.,-176.,-11.));
#2032=CARTESIAN_POINT('Origin',(17.,-173.,-11.));
#2033=CARTESIAN_POINT('',(17.,-176.,0.));
#2034=CARTESIAN_POINT('',(14.,-173.,0.));
#2035=CARTESIAN_POINT('Origin',(14.,-173.,0.));
#2036=CARTESIAN_POINT('',(14.,-25.,-11.));
#2037=CARTESIAN_POINT('',(14.,-99.,-11.));
#2038=CARTESIAN_POINT('',(14.,-25.,0.));
#2039=CARTESIAN_POINT('Origin',(17.,-25.,0.));
#2040=CARTESIAN_POINT('Origin',(17.,-25.,-11.));
#2041=CARTESIAN_POINT('Origin',(395.,-25.,0.));
#2042=CARTESIAN_POINT('',(398.,-25.,-11.));
#2043=CARTESIAN_POINT('Origin',(395.,-25.,-11.));
#2044=CARTESIAN_POINT('',(398.,-25.,0.));
#2045=CARTESIAN_POINT('Origin',(398.,-25.,0.));
#2046=CARTESIAN_POINT('',(398.,-173.,-11.));
#2047=CARTESIAN_POINT('',(398.,-25.,-11.));
#2048=CARTESIAN_POINT('',(398.,-173.,0.));
#2049=CARTESIAN_POINT('Origin',(395.,-173.,0.));
#2050=CARTESIAN_POINT('',(395.,-176.,-11.));
#2051=CARTESIAN_POINT('Origin',(395.,-173.,-11.));
#2052=CARTESIAN_POINT('',(395.,-176.,0.));
#2053=CARTESIAN_POINT('Origin',(395.,-176.,0.));
#2054=CARTESIAN_POINT('',(206.,-176.,-11.));
#2055=CARTESIAN_POINT('Origin',(243.000000283122,-23.0000003427267,0.));
#2056=CARTESIAN_POINT('',(243.000000283122,-23.0000003427267,-1.5));
#2057=CARTESIAN_POINT('',(243.000000283122,-23.0000003427267,0.));
#2058=CARTESIAN_POINT('',(243.000000283122,-27.0000003427267,-1.5));
#2059=CARTESIAN_POINT('',(243.000000283122,-23.0000003427267,-1.5));
#2060=CARTESIAN_POINT('',(243.000000283122,-27.,0.));
#2061=CARTESIAN_POINT('Origin',(310.000000283122,-27.0000003427267,0.));
#2062=CARTESIAN_POINT('',(310.000000283122,-27.0000003427267,-1.5));
#2063=CARTESIAN_POINT('',(310.000000283122,-27.,0.));
#2064=CARTESIAN_POINT('',(310.000000283122,-23.0000003427267,-1.5));
#2065=CARTESIAN_POINT('',(310.000000283122,-27.0000003427267,-1.5));
#2066=CARTESIAN_POINT('',(310.000000283122,-23.0000003427267,0.));
#2067=CARTESIAN_POINT('Origin',(390.000000283122,-23.0000003427267,0.));
#2068=CARTESIAN_POINT('',(390.000000283122,-27.0000003427267,-1.5));
#2069=CARTESIAN_POINT('',(390.000000283122,-23.0000003427267,-1.5));
#2070=CARTESIAN_POINT('',(390.000000283122,-27.,0.));
#2071=CARTESIAN_POINT('Origin',(393.,-27.,0.));
#2072=CARTESIAN_POINT('',(393.,-59.0000005659601,-1.5));
#2073=CARTESIAN_POINT('',(393.,-59.0000005659601,0.));
#2074=CARTESIAN_POINT('',(393.,-27.,-10.));
#2075=CARTESIAN_POINT('',(393.,-27.,0.));
#2076=CARTESIAN_POINT('',(393.,-171.,-10.));
#2077=CARTESIAN_POINT('',(393.,-27.,-10.));
#2078=CARTESIAN_POINT('',(393.000000283122,-171.000000342727,-1.5));
#2079=CARTESIAN_POINT('',(393.,-171.,0.));
#2080=CARTESIAN_POINT('',(393.000000283122,-175.000000342727,-1.5));
#2081=CARTESIAN_POINT('',(393.000000283122,-171.000000342727,-1.5));
#2082=CARTESIAN_POINT('',(393.000000283122,-175.000000342727,0.));
#2083=CARTESIAN_POINT('',(393.,-139.000000001547,-1.5));
#2084=CARTESIAN_POINT('',(393.,-139.000000001547,0.));
#2085=CARTESIAN_POINT('',(393.,-63.0000007047975,-1.5));
#2086=CARTESIAN_POINT('Origin',(392.997198355473,-59.0000005659601,0.));
#2087=CARTESIAN_POINT('',(397.004838458162,-59.0000005659601,-1.5));
#2088=CARTESIAN_POINT('',(397.004838458162,-59.0000005659601,-1.5));
#2089=CARTESIAN_POINT('',(397.004838458162,-59.0000005659601,0.));
#2090=CARTESIAN_POINT('Origin',(397.004838458162,-59.0000005659601,0.));
#2091=CARTESIAN_POINT('',(397.077281795582,-139.00000225323,-1.5));
#2092=CARTESIAN_POINT('',(397.077281795582,-139.00000225323,-1.5));
#2093=CARTESIAN_POINT('',(397.077281795582,-139.00000225323,0.));
#2094=CARTESIAN_POINT('Origin',(397.077281795582,-139.00000225323,0.));
#2095=CARTESIAN_POINT('',(392.997197636475,-138.999999999999,-1.5));
#2096=CARTESIAN_POINT('Origin',(393.000000283122,-175.000000342727,0.));
#2097=CARTESIAN_POINT('',(313.000000283122,-175.000000342727,-1.5));
#2098=CARTESIAN_POINT('',(393.000000283122,-175.000000342727,-1.5));
#2099=CARTESIAN_POINT('',(313.000000283122,-175.000000342727,0.));
#2100=CARTESIAN_POINT('Origin',(313.000000283122,-175.000000342727,0.));
#2101=CARTESIAN_POINT('',(313.000000283122,-171.000000342727,-1.5));
#2102=CARTESIAN_POINT('',(313.000000283122,-175.000000342727,-1.5));
#2103=CARTESIAN_POINT('',(313.000000283122,-171.,0.));
#2104=CARTESIAN_POINT('Origin',(246.000000283122,-171.000000342727,0.));
#2105=CARTESIAN_POINT('',(246.000000283122,-171.000000342727,-1.5));
#2106=CARTESIAN_POINT('',(246.000000283122,-171.,0.));
#2107=CARTESIAN_POINT('',(246.000000283122,-175.000000342727,-1.5));
#2108=CARTESIAN_POINT('',(246.000000283122,-171.000000342727,-1.5));
#2109=CARTESIAN_POINT('',(246.000000283122,-175.000000342727,0.));
#2110=CARTESIAN_POINT('Origin',(246.000000283122,-175.000000342727,0.));
#2111=CARTESIAN_POINT('',(166.000000283122,-175.000000342727,-1.5));
#2112=CARTESIAN_POINT('',(246.000000283122,-175.000000342727,-1.5));
#2113=CARTESIAN_POINT('',(166.000000283122,-175.000000342727,0.));
#2114=CARTESIAN_POINT('Origin',(166.000000283122,-175.000000342727,0.));
#2115=CARTESIAN_POINT('',(166.000000283122,-171.000000342727,-1.5));
#2116=CARTESIAN_POINT('',(166.000000283122,-175.000000342727,-1.5));
#2117=CARTESIAN_POINT('',(166.000000283122,-171.,0.));
#2118=CARTESIAN_POINT('Origin',(99.0000002831221,-171.000000342727,0.));
#2119=CARTESIAN_POINT('',(99.0000002831221,-171.000000342727,-1.5));
#2120=CARTESIAN_POINT('',(99.0000002831221,-171.,0.));
#2121=CARTESIAN_POINT('',(99.0000002831221,-175.000000342727,-1.5));
#2122=CARTESIAN_POINT('',(99.0000002831221,-171.000000342727,-1.5));
#2123=CARTESIAN_POINT('',(99.0000002831221,-175.000000342727,0.));
#2124=CARTESIAN_POINT('Origin',(99.0000002831221,-175.000000342727,0.));
#2125=CARTESIAN_POINT('',(19.0000002831221,-175.000000342727,-1.5));
#2126=CARTESIAN_POINT('',(99.0000002831221,-175.000000342727,-1.5));
#2127=CARTESIAN_POINT('',(19.0000002831221,-175.000000342727,0.));
#2128=CARTESIAN_POINT('Origin',(19.,-171.,0.));
#2129=CARTESIAN_POINT('',(19.,-59.0000005659601,-1.5));
#2130=CARTESIAN_POINT('',(19.,-59.0000005659601,0.));
#2131=CARTESIAN_POINT('',(19.,-139.000000001547,-1.5));
#2132=CARTESIAN_POINT('',(19.,-135.000000704798,-1.5));
#2133=CARTESIAN_POINT('',(19.,-139.000000001547,0.));
#2134=CARTESIAN_POINT('',(19.0000002831221,-171.000000342727,-1.5));
#2135=CARTESIAN_POINT('',(19.0000002831221,-175.000000342727,-1.5));
#2136=CARTESIAN_POINT('',(19.,-171.,-10.));
#2137=CARTESIAN_POINT('',(19.,-171.,0.));
#2138=CARTESIAN_POINT('',(19.,-27.,-10.));
#2139=CARTESIAN_POINT('',(19.,-171.,-10.));
#2140=CARTESIAN_POINT('',(19.0000002831221,-27.0000003427267,-1.5));
#2141=CARTESIAN_POINT('',(19.,-27.,0.));
#2142=CARTESIAN_POINT('',(19.0000002831221,-23.0000003427267,-1.5));
#2143=CARTESIAN_POINT('',(19.0000002831221,-27.0000003427267,-1.5));
#2144=CARTESIAN_POINT('',(19.0000002831221,-23.0000003427267,0.));
#2145=CARTESIAN_POINT('Origin',(19.,-139.000000001547,0.));
#2146=CARTESIAN_POINT('',(14.9227182044178,-139.00000225323,-1.5));
#2147=CARTESIAN_POINT('',(19.0028023635252,-138.999999999999,-1.5));
#2148=CARTESIAN_POINT('',(14.9227182044178,-139.00000225323,0.));
#2149=CARTESIAN_POINT('Origin',(14.9227182044178,-139.00000225323,0.));
#2150=CARTESIAN_POINT('',(14.995161541838,-59.0000005659601,-1.5));
#2151=CARTESIAN_POINT('',(14.9227182044178,-139.00000225323,-1.5));
#2152=CARTESIAN_POINT('',(14.995161541838,-59.0000005659601,0.));
#2153=CARTESIAN_POINT('Origin',(14.995161541838,-59.0000005659601,0.));
#2154=CARTESIAN_POINT('',(14.995161541838,-59.0000005659601,-1.5));
#2155=CARTESIAN_POINT('Origin',(19.0000002831221,-23.0000003427267,0.));
#2156=CARTESIAN_POINT('',(96.0000002831221,-23.0000003427267,-1.5));
#2157=CARTESIAN_POINT('',(19.0000002831221,-23.0000003427267,-1.5));
#2158=CARTESIAN_POINT('',(96.0000002831221,-23.0000003427267,0.));
#2159=CARTESIAN_POINT('Origin',(96.0000002831221,-23.0000003427267,0.));
#2160=CARTESIAN_POINT('',(96.0000002831221,-27.0000003427267,-1.5));
#2161=CARTESIAN_POINT('',(96.0000002831221,-23.0000003427267,-1.5));
#2162=CARTESIAN_POINT('',(96.0000002831221,-27.,0.));
#2163=CARTESIAN_POINT('Origin',(163.000000283122,-27.0000003427267,0.));
#2164=CARTESIAN_POINT('',(163.000000283122,-27.0000003427267,-1.5));
#2165=CARTESIAN_POINT('',(163.000000283122,-27.,0.));
#2166=CARTESIAN_POINT('',(163.000000283122,-23.0000003427267,-1.5));
#2167=CARTESIAN_POINT('',(163.000000283122,-27.0000003427267,-1.5));
#2168=CARTESIAN_POINT('',(163.000000283122,-23.0000003427267,0.));
#2169=CARTESIAN_POINT('Origin',(163.000000283122,-23.0000003427267,0.));
#2170=CARTESIAN_POINT('',(163.000000283122,-23.0000003427267,-1.5));
#2171=CARTESIAN_POINT('Origin',(203.000000283122,-25.0000003427267,-1.5));
#2172=CARTESIAN_POINT('',(111.000000141561,-27.,-1.5));
#2173=CARTESIAN_POINT('',(207.900003069639,-25.000000372529,-1.5));
#2174=CARTESIAN_POINT('Origin',(206.000003069639,-25.000000372529,-1.5));
#2175=CARTESIAN_POINT('Origin',(57.5000002831221,-25.0000003427267,-1.5));
#2176=CARTESIAN_POINT('',(38.250000141561,-27.,-1.5));
#2177=CARTESIAN_POINT('Origin',(206.,-99.,-10.));
#2178=CARTESIAN_POINT('',(207.135785394786,-27.,-10.));
#2179=CARTESIAN_POINT('',(204.864220744492,-27.,-10.));
#2180=CARTESIAN_POINT('Origin',(206.000003069639,-25.000000372529,-10.));
#2181=CARTESIAN_POINT('',(19.,-27.,-10.));
#2182=CARTESIAN_POINT('',(204.864225939921,-171.,-10.));
#2183=CARTESIAN_POINT('',(393.,-171.,-10.));
#2184=CARTESIAN_POINT('',(207.135780199357,-171.,-10.));
#2185=CARTESIAN_POINT('Origin',(206.000003069639,-173.000002577901,-10.));
#2186=CARTESIAN_POINT('',(393.,-171.,-10.));
#2187=CARTESIAN_POINT('',(19.,-27.,-10.));
#2188=CARTESIAN_POINT('Origin',(353.000000283122,-173.000000342727,-1.5));
#2189=CARTESIAN_POINT('',(373.000000141561,-171.,-1.5));
#2190=CARTESIAN_POINT('Origin',(395.037239716029,-99.0000014095951,-1.5));
#2191=CARTESIAN_POINT('Origin',(206.000000283122,-173.000000342727,-1.5));
#2192=CARTESIAN_POINT('',(299.500000141561,-171.,-1.5));
#2193=CARTESIAN_POINT('',(207.900003069639,-173.000002577901,-1.5));
#2194=CARTESIAN_POINT('Origin',(206.000003069639,-173.000002577901,-1.5));
#2195=CARTESIAN_POINT('Origin',(59.0000002831221,-173.000000342727,-1.5));
#2196=CARTESIAN_POINT('',(226.000000141561,-171.,-1.5));
#2197=CARTESIAN_POINT('Origin',(16.9613591022089,-99.0000014095951,-1.5));
#2198=CARTESIAN_POINT('Origin',(17.,-25.,-11.));
#2199=CARTESIAN_POINT('',(19.3000002533197,-25.000000372529,-11.));
#2200=CARTESIAN_POINT('Origin',(17.0000002533197,-25.000000372529,-11.));
#2201=CARTESIAN_POINT('',(208.300003069639,-173.000002577901,-11.));
#2202=CARTESIAN_POINT('Origin',(206.000003069639,-173.000002577901,-11.));
#2203=CARTESIAN_POINT('',(397.300005885959,-25.000000372529,-11.));
#2204=CARTESIAN_POINT('Origin',(395.000005885959,-25.000000372529,-11.));
#2205=CARTESIAN_POINT('',(208.300003069639,-25.000000372529,-11.));
#2206=CARTESIAN_POINT('Origin',(206.000003069639,-25.000000372529,-11.));
#2207=CARTESIAN_POINT('',(397.300005885959,-173.000002577901,-11.));
#2208=CARTESIAN_POINT('Origin',(395.000005885959,-173.000002577901,-11.));
#2209=CARTESIAN_POINT('',(19.3000002533197,-173.000002577901,-11.));
#2210=CARTESIAN_POINT('Origin',(17.0000002533197,-173.000002577901,-11.));
#2211=CARTESIAN_POINT('Origin',(393.,-171.,0.));
#2212=CARTESIAN_POINT('',(207.135780199357,-171.,-7.));
#2213=CARTESIAN_POINT('',(207.135780199357,-171.,-9.));
#2214=CARTESIAN_POINT('',(204.864225939921,-171.,-7.));
#2215=CARTESIAN_POINT('',(299.50000153482,-171.,-7.));
#2216=CARTESIAN_POINT('',(204.864225939921,-171.,-9.));
#2217=CARTESIAN_POINT('Origin',(17.0000002533197,-25.000000372529,-3.));
#2218=CARTESIAN_POINT('',(18.9000002533197,-25.000000372529,-7.));
#2219=CARTESIAN_POINT('Origin',(17.0000002533197,-25.000000372529,-7.));
#2220=CARTESIAN_POINT('',(18.9000002533197,-25.000000372529,-3.));
#2221=CARTESIAN_POINT('Origin',(17.0000002533197,-25.000000372529,-9.));
#2222=CARTESIAN_POINT('',(19.3000002533197,-25.000000372529,-7.));
#2223=CARTESIAN_POINT('',(19.3000002533197,-25.000000372529,-9.));
#2224=CARTESIAN_POINT('Origin',(17.0000002533197,-25.000000372529,-7.));
#2225=CARTESIAN_POINT('Origin',(17.0000002533197,-25.000000372529,-7.));
#2226=CARTESIAN_POINT('Origin',(206.000003069639,-173.000002577901,-3.));
#2227=CARTESIAN_POINT('',(207.900003069639,-173.000002577901,-7.));
#2228=CARTESIAN_POINT('Origin',(206.000003069639,-173.000002577901,-7.));
#2229=CARTESIAN_POINT('',(207.900003069639,-173.000002577901,-3.));
#2230=CARTESIAN_POINT('Origin',(206.000003069639,-173.000002577901,-9.));
#2231=CARTESIAN_POINT('',(208.300003069639,-173.000002577901,-7.));
#2232=CARTESIAN_POINT('',(208.300003069639,-173.000002577901,-9.));
#2233=CARTESIAN_POINT('Origin',(206.000003069639,-173.000002577901,-7.));
#2234=CARTESIAN_POINT('Origin',(206.000003069639,-173.000002577901,-7.));
#2235=CARTESIAN_POINT('Origin',(206.000003069639,-173.000002577901,-7.));
#2236=CARTESIAN_POINT('Origin',(395.000005885959,-25.000000372529,-3.));
#2237=CARTESIAN_POINT('',(396.900005885959,-25.000000372529,-7.));
#2238=CARTESIAN_POINT('Origin',(395.000005885959,-25.000000372529,-7.));
#2239=CARTESIAN_POINT('',(396.900005885959,-25.000000372529,-3.));
#2240=CARTESIAN_POINT('Origin',(395.000005885959,-25.000000372529,-9.));
#2241=CARTESIAN_POINT('',(397.300005885959,-25.000000372529,-7.));
#2242=CARTESIAN_POINT('',(397.300005885959,-25.000000372529,-9.));
#2243=CARTESIAN_POINT('Origin',(395.000005885959,-25.000000372529,-7.));
#2244=CARTESIAN_POINT('Origin',(395.000005885959,-25.000000372529,-7.));
#2245=CARTESIAN_POINT('Origin',(206.000003069639,-25.000000372529,-3.));
#2246=CARTESIAN_POINT('',(207.900003069639,-25.000000372529,-7.));
#2247=CARTESIAN_POINT('Origin',(206.000003069639,-25.000000372529,-7.));
#2248=CARTESIAN_POINT('',(207.900003069639,-25.000000372529,-3.));
#2249=CARTESIAN_POINT('Origin',(206.000003069639,-25.000000372529,-9.));
#2250=CARTESIAN_POINT('',(208.300003069639,-25.000000372529,-7.));
#2251=CARTESIAN_POINT('',(208.300003069639,-25.000000372529,-9.));
#2252=CARTESIAN_POINT('',(204.864220744492,-27.,-7.));
#2253=CARTESIAN_POINT('Origin',(206.000003069639,-25.000000372529,-7.));
#2254=CARTESIAN_POINT('',(204.864220744492,-27.,-9.));
#2255=CARTESIAN_POINT('',(207.135785394786,-27.,-7.));
#2256=CARTESIAN_POINT('',(207.135785394786,-27.,-9.));
#2257=CARTESIAN_POINT('Origin',(206.000003069639,-25.000000372529,-7.));
#2258=CARTESIAN_POINT('Origin',(206.000003069639,-25.000000372529,-7.));
#2259=CARTESIAN_POINT('',(112.50000153482,-27.,-7.));
#2260=CARTESIAN_POINT('Origin',(395.000005885959,-173.000002577901,-3.));
#2261=CARTESIAN_POINT('',(396.900005885959,-173.000002577901,-7.));
#2262=CARTESIAN_POINT('Origin',(395.000005885959,-173.000002577901,-7.));
#2263=CARTESIAN_POINT('',(396.900005885959,-173.000002577901,-3.));
#2264=CARTESIAN_POINT('Origin',(395.000005885959,-173.000002577901,-9.));
#2265=CARTESIAN_POINT('',(397.300005885959,-173.000002577901,-7.));
#2266=CARTESIAN_POINT('',(397.300005885959,-173.000002577901,-9.));
#2267=CARTESIAN_POINT('Origin',(395.000005885959,-173.000002577901,-7.));
#2268=CARTESIAN_POINT('Origin',(395.000005885959,-173.000002577901,-7.));
#2269=CARTESIAN_POINT('Origin',(17.0000002533197,-173.000002577901,-3.));
#2270=CARTESIAN_POINT('',(18.9000002533197,-173.000002577901,-7.));
#2271=CARTESIAN_POINT('Origin',(17.0000002533197,-173.000002577901,-7.));
#2272=CARTESIAN_POINT('',(18.9000002533197,-173.000002577901,-3.));
#2273=CARTESIAN_POINT('Origin',(17.0000002533197,-173.000002577901,-9.));
#2274=CARTESIAN_POINT('',(19.3000002533197,-173.000002577901,-7.));
#2275=CARTESIAN_POINT('',(19.3000002533197,-173.000002577901,-9.));
#2276=CARTESIAN_POINT('Origin',(17.0000002533197,-173.000002577901,-7.));
#2277=CARTESIAN_POINT('Origin',(17.0000002533197,-173.000002577901,-7.));
#2278=CARTESIAN_POINT('Origin',(350.000000283122,-25.0000003427267,-1.5));
#2279=CARTESIAN_POINT('',(184.500000141561,-27.,-1.5));
#2280=CARTESIAN_POINT('Origin',(350.000000283122,-25.0000003427267,-1.5));
#2281=CARTESIAN_POINT('',(310.000000283122,-23.0000003427267,-1.5));
#2282=CARTESIAN_POINT('',(184.500000141561,-27.,-1.5));
#2283=CARTESIAN_POINT('Origin',(19.,-27.,0.));
#2284=CARTESIAN_POINT('Origin',(310.000000283122,-23.0000003427267,0.));
#2285=UNCERTAINTY_MEASURE_WITH_UNIT(LENGTH_MEASURE(0.01),#2289,
'DISTANCE_ACCURACY_VALUE',
'Maximum model space distance between geometric entities at asserted c
onnectivities');
#2286=UNCERTAINTY_MEASURE_WITH_UNIT(LENGTH_MEASURE(0.01),#2289,
'DISTANCE_ACCURACY_VALUE',
'Maximum model space distance between geometric entities at asserted c
onnectivities');
#2287=(
GEOMETRIC_REPRESENTATION_CONTEXT(3)
GLOBAL_UNCERTAINTY_ASSIGNED_CONTEXT((#2285))
GLOBAL_UNIT_ASSIGNED_CONTEXT((#2289,#2291,#2292))
REPRESENTATION_CONTEXT('','3D')
);
#2288=(
GEOMETRIC_REPRESENTATION_CONTEXT(3)
GLOBAL_UNCERTAINTY_ASSIGNED_CONTEXT((#2286))
GLOBAL_UNIT_ASSIGNED_CONTEXT((#2289,#2291,#2292))
REPRESENTATION_CONTEXT('','3D')
);
#2289=(
LENGTH_UNIT()
NAMED_UNIT(*)
SI_UNIT(.MILLI.,.METRE.)
);
#2290=(
LENGTH_UNIT()
NAMED_UNIT(*)
SI_UNIT($,.METRE.)
);
#2291=(
NAMED_UNIT(*)
PLANE_ANGLE_UNIT()
SI_UNIT($,.RADIAN.)
);
#2292=(
NAMED_UNIT(*)
SI_UNIT($,.STERADIAN.)
SOLID_ANGLE_UNIT()
);
#2293=SHAPE_DEFINITION_REPRESENTATION(#2294,#2295);
#2294=PRODUCT_DEFINITION_SHAPE('',$,#2297);
#2295=SHAPE_REPRESENTATION('',(#1405),#2287);
#2296=PRODUCT_DEFINITION_CONTEXT('part definition',#2301,'design');
#2297=PRODUCT_DEFINITION('2026-08-26-21-10-47-367','Bottom_Case',#2298,
#2296);
#2298=PRODUCT_DEFINITION_FORMATION('',$,#2303);
#2299=PRODUCT_RELATED_PRODUCT_CATEGORY('Bottom_Case','Bottom_Case',(#2303));
#2300=APPLICATION_PROTOCOL_DEFINITION('international standard',
'automotive_design',2009,#2301);
#2301=APPLICATION_CONTEXT(
'Core Data for Automotive Mechanical Design Process');
#2302=PRODUCT_CONTEXT('part definition',#2301,'mechanical');
#2303=PRODUCT('2026-08-26-21-10-47-367','Bottom_Case',$,(#2302));
#2304=PRESENTATION_STYLE_ASSIGNMENT((#2305));
#2305=SURFACE_STYLE_USAGE(.BOTH.,#2306);
#2306=SURFACE_SIDE_STYLE('',(#2307));
#2307=SURFACE_STYLE_FILL_AREA(#2308);
#2308=FILL_AREA_STYLE('Steel - Satin',(#2309));
#2309=FILL_AREA_STYLE_COLOUR('Steel - Satin',#2310);
#2310=COLOUR_RGB('Steel - Satin',0.627450980392157,0.627450980392157,0.627450980392157);
ENDSEC;
END-ISO-10303-21;
